<?xml version="1.0" encoding="utf-8"?>
<!-- Generator: Adobe Illustrator 21.0.2, SVG Export Plug-In . SVG Version: 6.00 Build 0)  -->
<svg version="1.1" id="Layer_1" xmlns="http://www.w3.org/2000/svg" xmlns:xlink="http://www.w3.org/1999/xlink" x="0px" y="0px"
	 viewBox="0 0 646 768" style="enable-background:new 0 0 646 768;" xml:space="preserve">
<style type="text/css">
	.st0{stroke:#FFFFFF;stroke-miterlimit:10;}
	.st1{fill:#3A3737;stroke:#3A3737;stroke-width:1.5;stroke-miterlimit:10;}
	.st2{fill:#3A3737;}
	.st3{fill:#FFFFFF;stroke:#FFFFFF;stroke-width:1.5;stroke-miterlimit:10;}
	.st4{fill:#FFFFFF;}
	.st5{fill:none;stroke:#FFFFFF;stroke-width:4;stroke-miterlimit:10;}
</style>
<path d="M152,271"/>
<path class="st0" d="M-31.7,331"/>
<g>
	<g>
		<path class="st1" d="M91.2,669.2v2H70.4v32.6h24.7v2.1H68.2v-70.5h26.9v2.1H70.4v31.6h20.8V669.2z"/>
		<path class="st1" d="M113.9,689.4l-4.1,16.6h-2l17-70.6h3.1l17.4,70.6h-2.2l-4.1-16.6H113.9z M114.3,687.4h24.3L126.2,638
			L114.3,687.4z"/>
		<path class="st1" d="M172.1,635.5c10.5,0,14.5,6.1,14.5,15.8v6.3c0,8.7-3.4,13.4-11.2,14.8c7.9,1.2,11.2,6.3,11.2,14.1v11.1
			c0,2.7,0.3,6.1,1.9,8.4h-2.4c-1.4-2.2-1.7-5.3-1.7-8.4v-11.1c0-10.4-6.2-13.1-15.4-13.1h-8.7V706h-2.2v-70.5H172.1z M168.9,671.3
			c9.8,0,15.4-2.5,15.4-13.4v-6.4c0-8.6-3.3-13.9-12.4-13.9h-11.7v33.7L168.9,671.3L168.9,671.3z"/>
		<path class="st1" d="M215,706v-68.4h-15.4v-2.1h33v2.1h-15.4V706H215z"/>
		<path class="st1" d="M246.3,671.8V706h-2.2v-70.5h2.2v34.2h25.5v-34.2h2.2V706h-2.2v-34.2H246.3z"/>
	</g>
	<g>
		<path class="st2" d="M357,669.4c0-21.5,16.3-36.2,37.2-36.2c15.4,0,24.3,8.4,29.3,17.1l-12.8,6.3c-2.9-5.7-9.2-10.2-16.5-10.2
			c-12.7,0-21.9,9.8-21.9,23s9.2,23,21.9,23c7.2,0,13.5-4.4,16.5-10.2l12.8,6.2c-5,8.7-13.9,17.2-29.3,17.2
			C373.2,705.6,357,691,357,669.4z"/>
		<path class="st2" d="M437.6,704.4v-70h14.9v70H437.6z"/>
		<path class="st2" d="M487.8,704.4v-56.9h-20.5v-13.1h55.8v13.1h-20.4v56.9H487.8z"/>
		<path class="st2" d="M557.4,704.4v-28.6l-27-41.3h17l17.4,28.1l17.2-28.1h17l-26.8,41.3v28.6H557.4z"/>
	</g>
	<g>
		<path class="st2" d="M320,674.6v21.3h-9.1v-21.3H292v-8.3h18.9v-20.5h9.1v20.5h18.8v8.3H320z"/>
	</g>
</g>
<circle class="st2" cx="316.2" cy="289.6" r="225.6"/>
<g>
	<path class="st3" d="M207.5,257.2v2.9h-29.8V307h35.4v3h-38.6V208.7h38.6v3h-35.4v45.4h29.8V257.2z"/>
	<path class="st3" d="M236.4,286.1l-5.9,23.9h-2.9L252,208.6h4.5l25,101.4h-3.2l-5.9-23.9H236.4z M237,283.2h34.9l-17.7-70.9
		L237,283.2z"/>
	<path class="st3" d="M316.4,208.7c15,0,20.8,8.8,20.8,22.7v9.1c0,12.4-4.9,19.2-16.1,21.3c11.3,1.7,16.1,9.1,16.1,20.3V298
		c0,3.9,0.4,8.8,2.7,12h-3.5c-2-3.2-2.5-7.7-2.5-12v-15.9c0-14.9-9-18.8-22.1-18.8h-12.4V310h-3.2V208.7H316.4z M311.9,260.2
		c14,0,22.1-3.6,22.1-19.2v-9.3c0-12.3-4.8-20-17.8-20h-16.8v48.5H311.9z"/>
	<path class="st3" d="M374.4,310v-98.2h-22.1v-3h47.5v3h-22.1V310H374.4z"/>
	<path class="st3" d="M415.8,260.8V310h-3.2V208.7h3.2v49.2h36.6v-49.2h3.2V310h-3.2v-49.2H415.8z"/>
</g>
<g>
	<path class="st4" d="M228,359.8c0-20.6,15.6-34.7,35.7-34.7c14.8,0,23.3,8,28,16.4l-12.3,6c-2.8-5.4-8.8-9.7-15.8-9.7
		c-12.2,0-21,9.3-21,22s8.8,22,21,22c6.9,0,13-4.2,15.8-9.7l12.3,5.9c-4.8,8.3-13.3,16.5-28,16.5C243.6,394.4,228,380.4,228,359.8z"
		/>
	<path class="st4" d="M305.3,393.2v-67h14.3v67H305.3z"/>
	<path class="st4" d="M353.3,393.2v-54.5h-19.6v-12.6h53.5v12.6h-19.5v54.5H353.3z"/>
	<path class="st4" d="M420,393.2v-27.4l-25.8-39.6h16.3l16.7,26.9l16.5-26.9H460l-25.6,39.6v27.4H420z"/>
</g>
<g>
	<path class="st4" d="M199.4,363.2v19.6H191v-19.6h-17.4v-7.6H191v-18.8h8.4v18.8h17.3v7.6H199.4z"/>
</g>
<circle class="st5" cx="316.2" cy="289.6" r="209.8"/>
</svg>
