<?xml version="1.0" encoding="UTF-8"?>
<svg width="178px" height="202px" viewBox="0 0 178 202" version="1.1" xmlns="http://www.w3.org/2000/svg" xmlns:xlink="http://www.w3.org/1999/xlink">
    <!-- Generator: Sketch 42 (36781) - http://www.bohemiancoding.com/sketch -->
    <title>local_food_illu</title>
    <desc>Created with Sketch.</desc>
    <defs></defs>
    <g id="Page-1" stroke="none" stroke-width="1" fill="none" fill-rule="evenodd">
        <g id="ui_illustrations" transform="translate(-325.000000, 0.000000)" fill="#509DBE">
            <g id="local_food_illu" transform="translate(325.000000, 0.000000)">
                <path d="M126.326092,44.600326 C124.459035,46.9761758 122.665903,49.406828 120.838388,51.810079 C120.556438,52.1824137 120.209159,52.5096168 119.545545,53.2381678 C119.139813,42.6209885 116.359857,32.8129521 114.401682,22.8534028 C112.873308,24.3024455 113.801679,25.8868826 113.93062,27.3601029 C114.726612,36.383174 117.30542,45.2370022 116.865304,54.3777375 C116.696822,57.8480255 116.442379,61.313478 116.225759,64.7821541 C116.034927,64.8691934 115.845815,64.9562327 115.654983,65.0416601 C113.169012,61.8743977 110.681321,58.7071353 108.193631,55.539873 C107.951223,55.6011228 107.707096,55.6623727 107.462968,55.7236225 C107.557525,56.4602327 107.423427,57.3193425 107.787898,57.9092754 C108.893347,59.7000278 110.270431,61.3424911 111.394791,63.1251843 C112.931761,65.5638957 114.348387,68.0686925 115.768451,70.5686538 C115.959282,70.9039162 115.914583,71.3777967 115.904268,71.7855918 C115.845815,74.096968 115.887076,76.4196271 115.620599,78.7100494 C115.532919,79.4547187 114.77475,80.389585 114.047526,80.7522486 C112.976461,81.2873789 112.039494,80.8811957 112.158119,79.4869555 C112.620585,74.0566721 109.603379,70.5057921 104.913386,67.9687586 C100.866376,65.7782702 98.2566224,62.7302839 98.6004635,58.2332549 C98.7483152,56.3054962 99.6594941,54.3374415 100.62053,52.5773141 C102.202199,49.6792287 103.338594,46.7505184 103.360944,43.4478616 C103.378136,40.8254006 102.336297,38.7122805 100.304196,37.011791 C97.9574806,35.0485719 96.1660684,32.7565377 94.8319648,30.0679913 C93.4273739,27.2343795 94.6927092,22.6116271 97.6067627,21.0674859 C104.474989,17.4263431 104.999347,13.5321416 103.402205,7.30722186 C102.925985,5.44232487 103.15292,3.79341423 104.242896,2.42335162 C104.94949,1.53684052 106.314539,0.993650996 107.500791,0.600362436 C108.344921,0.3215144 109.379883,0.548783608 110.330603,0.552007285 C112.252675,0.555230962 113.774172,0.919506431 114.778188,2.83598224 C116.708856,6.52225657 120.257296,7.51031349 124.347286,7.02192647 C129.695735,6.38525031 132.527267,8.70307388 132.360504,13.8222725 C132.276263,16.4237796 132.032135,19.0236749 131.794885,21.6187347 C131.421817,25.7305343 132.26079,27.4519777 135.797196,28.7237182 C138.310674,29.6263476 138.874574,31.6911126 139.130735,33.6897921 C139.600078,37.3583363 138.94678,40.8979333 136.603503,44.0361826 C135.372552,45.6834814 134.22928,47.3904182 133.077412,49.0892958 C131.836146,50.9203442 132.025259,54.7178354 133.412657,56.5488838 C136.539892,60.6784137 135.905506,67.665733 131.961648,71.055429 C129.778257,72.9316089 127.524378,74.7900585 125.057318,76.3035747 C123.638974,77.1739674 121.74269,77.3851183 120.030361,77.767124 C119.808584,77.8187028 119.115744,77.1272241 119.114025,76.7774552 C119.095113,71.2182247 118.906001,65.641264 119.320329,60.106211 C119.480215,57.9447358 120.822915,55.7639185 122.004009,53.7878047 C123.905451,50.6092594 126.118068,47.5967335 128.200026,44.5132867 C128.026386,44.3134188 127.851027,44.1135508 127.675668,43.9136829 C127.216641,44.1361166 126.601165,44.2505571 126.326092,44.600326 Z" id="Fill-4"></path>
                <path d="M52.4511402,87.2365131 C48.3663077,86.320989 44.4774647,88.295491 43.9634222,91.5336742 C46.805269,90.0943026 49.4184615,88.7709833 52.4511402,87.2365131 M97.4358736,94.9685018 C95.7974707,94.776693 94.0679499,94.8395547 92.5430145,94.3463322 C88.1246562,92.9166315 85.3911193,93.3872883 82.5647453,96.9349446 C79.7710362,100.439081 76.2311919,102.017071 71.6271593,101.794637 C69.1171192,101.673749 66.9784274,101.001613 65.1698231,99.2527681 C62.0718147,96.2579725 58.3377001,95.2328433 54.0878239,96.7898791 C48.6104349,98.795006 43.3084049,98.7224733 37.9358874,96.3256697 C34.2241225,94.6686998 31.7158016,95.5423162 28.4888527,98.8610914 C26.7060365,100.693752 24.8406984,102.465162 22.9083113,104.159204 C19.7174658,106.957355 16.5231818,107.152388 12.9231653,104.910321 C12.3953691,104.581506 11.8417849,104.286539 11.3329001,103.93677 C10.127737,103.108285 8.95695797,102.78753 7.47156434,103.49835 C6.36783435,104.027033 5.06811493,104.439664 3.85435578,104.444499 C2.88472383,104.449335 1.55921632,104.014139 1.00563212,103.333943 C-0.641366837,101.312698 -0.180619739,97.808561 1.76552099,95.9791244 C4.07785251,93.8079781 6.50709,91.744825 8.76612615,89.5253236 C9.47100044,88.833845 9.90939787,87.8328933 10.2549582,86.9012508 C11.0767385,84.675302 11.5563968,82.3187943 12.5707281,80.178273 C13.7122806,77.7685746 14.9604239,75.2798962 16.7518361,73.2908876 C19.3925359,70.3621773 22.8275087,68.4166884 27.2441478,69.1581341 C30.2476,69.6626395 33.208072,70.4411574 36.226997,70.7957619 C37.5490661,70.9504983 39.0138293,70.4766179 40.3341792,70.0655991 C41.2040972,69.7948102 41.9278828,69.1178381 42.7255942,68.6342866 C47.8986838,65.5073202 51.914748,66.1246543 55.7262268,70.6442491 C56.3554561,71.3873065 56.9606164,72.1513179 57.5262351,72.937895 C59.0821161,75.102594 62.008204,76.1357824 64.750337,75.4056196 C65.8282789,75.1171005 66.8752751,74.723812 67.9343057,74.3724312 C69.1669761,73.9630242 70.0368942,74.0387806 71.0134029,75.1831859 C74.125165,78.8259406 77.4122861,82.34136 80.7320721,85.8213191 C81.66732,86.8013168 82.9532857,87.4863481 84.3406847,88.4985826 C83.5790766,88.5421022 83.0117387,88.7145689 82.5527108,88.5759508 C80.7784907,88.035985 78.9819208,87.8731893 77.1251788,87.7410186 C76.1228819,87.6700977 75.1498116,86.5869423 74.2627015,85.8551677 C72.8391993,84.6833612 71.5274454,83.3922787 70.1039432,82.222084 C69.6517921,81.8513612 68.9916172,81.7046839 68.4277177,81.4564608 C68.27127,81.6305393 68.1131031,81.8046179 67.9583746,81.9786964 C69.5400437,83.5889229 71.1234321,85.2007613 72.7085396,86.8109878 C72.6139833,86.9721717 72.519427,87.1333555 72.4248707,87.2929275 C68.1492064,86.6369093 63.8769805,85.9502661 59.5961586,85.332932 C55.4838188,84.7397755 51.3749175,83.9628694 47.2350704,83.7372121 C43.1553956,83.5131665 39.0344598,83.827475 34.939312,84.027343 C34.136443,84.0660271 33.3645197,84.6591836 32.6544878,85.2781295 C47.1112876,83.8484289 60.7273959,87.8199986 74.5721585,90.0975262 C74.6340499,90.2732166 74.6959413,90.448907 74.7578327,90.6245974 C73.8294617,91.1097607 72.8735834,91.5530163 71.9813157,92.0881466 C71.0374718,92.6571256 70.060963,93.2293282 69.2907589,93.9756093 C69.0019324,94.2544574 69.2563748,95.0265279 69.2632516,95.574553 C69.8048014,95.4971847 70.4598187,95.574553 70.8707089,95.315047 C72.9492284,94.0013987 74.9142804,92.5249548 77.0323417,91.2741682 C77.72862,90.8615376 78.7601433,90.8534784 79.643815,90.8341364 C80.7733331,90.8099588 81.9166048,91.0839713 83.039246,91.0146623 C88.2673502,90.6955183 92.7441616,93.1358415 97.6129518,94.1206748 C97.5527796,94.4043583 97.4943266,94.6864301 97.4358736,94.9685018" id="Fill-6"></path>
                <path d="M103.845932,88.9805223 C104.107251,88.893483 104.370289,88.8080555 104.633328,88.7210163 C104.145073,86.8029286 103.658538,84.8864528 103.172003,82.969977 C102.865984,83.0473452 102.558247,83.1263253 102.252228,83.2053054 C102.783463,85.1298404 103.314697,87.0559873 103.845932,88.9805223 M156.293737,94.9120874 C155.300036,93.1777493 153.861061,93.6935376 152.619794,93.6145575 C151.624374,93.550084 150.601447,93.7741295 150.959042,94.8572849 C151.148154,95.4294875 152.318933,96.0951768 153.008335,96.0581045 C154.055331,96.0016902 155.066224,95.3730732 156.293737,94.9120874 M154.40261,112.207113 C153.108049,112.685829 151.938989,112.979184 150.950446,113.548163 C150.537836,113.786715 150.352162,114.6152 150.37795,115.163225 C150.389985,115.38727 151.263341,115.785394 151.696581,115.737039 C152.679966,115.62421 153.627249,115.250264 154.603757,115.04556 C155.681699,114.818291 157.208354,114.877929 156.943596,113.433722 C156.847321,112.908263 155.303474,112.614908 154.40261,112.207113 M151.923516,108.459589 C153.730401,107.737485 155.368804,107.133046 156.940158,106.402883 C157.191162,106.285219 157.357925,105.485747 157.187723,105.190781 C156.451904,103.904534 153.976247,103.535423 152.740139,104.473513 C152.104033,104.958676 151.433542,105.447063 150.952165,106.054726 C150.634112,106.456074 150.367635,107.178177 150.548152,107.563407 C150.744141,107.988932 151.479961,108.193636 151.923516,108.459589 M132.407094,115.653223 C133.378445,116.160953 134.294782,116.857267 135.334901,117.110325 C136.09479,117.292463 137.014565,116.889503 137.863853,116.749274 C137.48047,116.14967 137.2415,115.364704 136.687916,114.985922 C134.592204,113.55461 132.355518,112.305435 130.258087,110.875735 C129.663242,110.472775 129.348627,109.700704 128.93086,109.081758 C128.80192,108.891562 128.819112,108.590148 128.660945,108.440247 C127.615668,107.455414 126.2042,106.660777 125.554341,105.492194 C124.650039,103.859402 124.270094,101.96388 123.733702,100.163457 C123.279832,98.6434932 122.920518,97.0961284 122.521662,95.5600464 C122.463209,95.3327772 122.354899,95.1022843 122.368653,94.8782388 C122.499312,92.6603492 122.184698,92.1381136 119.848297,91.8383117 C118.503879,91.6674568 117.076938,91.7996275 115.722204,91.9994955 C112.847692,92.4217972 110.071175,92.6732439 107.727898,90.5407818 C107.451106,90.289335 106.902679,90.1748945 106.491789,90.1942365 C102.37773,90.3957163 98.9685454,88.3309514 98.0779969,84.7736241 C97.8459042,83.8452052 98.170834,82.5138268 98.7828712,81.7514272 C99.5513561,80.7956071 100.744485,80.2395228 102.274578,81.135705 C103.777163,82.0157687 105.499807,82.600866 107.18291,83.1617858 C111.233358,84.5141182 115.271772,84.7043151 118.969783,82.281722 C121.871802,80.3813646 125.284425,80.0735035 128.556074,79.3981432 C129.585878,79.1853805 130.851213,79.9574511 132.003081,80.2911017 C132.169844,80.3394568 132.353799,80.5683378 132.46039,80.5328774 C135.620289,79.4835706 137.023161,81.9899793 138.946952,83.3809958 C139.636354,83.8790538 140.174465,84.5769799 140.721172,85.2281625 C144.412307,89.6333168 148.973359,87.995689 153.391718,86.7513498 C155.863935,86.0550356 158.281138,85.1314522 160.629573,84.1224414 C161.857086,83.5953703 163.012392,82.7797801 163.96999,81.8787624 C165.768279,80.1895558 167.532184,78.4374875 169.057119,76.5355183 C170.387784,74.8769366 170.233056,74.7689434 171.013575,74.5787465 C171.84739,77.1351221 172.196388,79.5818928 171.390081,82.3187943 C170.747098,84.4979998 170.900107,86.9012508 170.865723,89.2094033 C170.853689,90.060454 171.307559,90.9211756 171.555125,91.7770618 C172.06229,93.5355775 173.016449,94.9282058 175.02792,95.4262639 C176.484087,95.7873157 176.795263,96.6689912 176.224487,97.8617516 C175.019324,100.389114 173.974047,103.009963 172.488653,105.387425 C170.214144,109.028568 170.147095,111.312543 173.243384,114.360529 C174.381499,115.480757 174.675483,117.529403 176.88982,117.629337 C176.979218,117.634173 177.154577,118.059698 177.109878,118.249895 C176.697269,119.989069 174.297258,121.062553 172.49553,120.409758 C167.963704,118.767295 163.418125,117.266674 158.502916,116.821806 C154.020947,116.417235 150.417492,117.78085 146.956731,120.327555 C144.922911,121.824953 142.405994,122.774325 140.036929,123.834915 C138.830046,124.373269 137.736631,124.029947 136.952674,122.867812 C135.376162,120.53387 133.720567,118.24506 132.097637,115.938519 C132.200789,115.84342 132.303942,115.748322 132.407094,115.653223" id="Fill-8"></path>
                <path d="M66.3373356,52.7189946 C66.808398,53.1235661 67.2158497,53.6393544 67.7608379,53.9133669 C71.1012543,55.5961261 74.5706112,57.0725701 77.813033,58.9052303 C82.822798,61.7372303 87.7019035,64.7787693 92.5999202,67.7848478 C93.7294383,68.4763265 94.7076663,69.3821796 95.675579,70.4298746 C90.8772762,69.8721785 86.1666529,69.3031995 81.5987237,70.8521762 C81.5798124,71.0842809 81.5591819,71.3179975 81.5402707,71.5501022 C82.3362629,71.691944 83.1442895,72.0046406 83.9248088,71.9498381 C88.9895885,71.5903982 93.9099549,72.5865143 98.7065385,73.7583208 C100.685344,74.2434841 102.249821,76.2115388 104.003411,77.5042331 C103.917451,77.6460749 103.83321,77.7879167 103.747249,77.9297585 C102.72776,77.9297585 101.709991,77.9200874 100.692221,77.9313703 C97.7455026,77.9636071 95.6446333,79.5061364 94.9088133,82.1656697 C93.9494966,85.6278985 89.6067833,87.6443083 86.1528993,86.0356936 C84.5471612,85.2878006 82.9947186,84.2288228 81.7740826,83.0006019 C79.4101749,80.6183048 77.1167547,78.1360738 75.1465451,75.4652576 C73.891525,73.76638 72.8771937,71.7274044 72.4456731,69.7109946 C71.4622875,65.1091961 70.069731,63.3700225 65.1373301,62.8542343 C58.3103647,62.1369662 54.8599191,57.9768114 53.0994526,52.4707715 C51.3596165,47.0292052 47.8816636,42.9641489 43.318892,39.5502752 C40.8174479,37.6773191 40.1383617,35.0887067 39.6449497,32.3759827 C39.5882159,32.0665097 39.756698,31.6635501 39.9492491,31.3814784 C40.9738956,29.869574 45.2323678,28.5381956 47.0581642,28.9347078 C51.0776668,29.8083242 55.126396,30.7045063 58.8570721,27.9837232 C59.9453293,27.1906987 61.1229851,27.1713566 62.3470595,27.9514864 C64.1625406,29.1087863 66.1997992,29.9985211 67.8588326,31.3153931 C68.898952,32.1390425 69.6708753,33.4591381 70.1230264,34.6970299 C71.850828,39.432611 76.7247758,41.6746782 81.7947131,40.0483333 C84.8050421,39.0828421 87.8944545,38.446166 91.0474776,39.6888933 C92.7133878,40.3449116 93.9563734,41.3023435 94.3913325,43.0415171 C94.9878968,45.4270379 96.2343208,47.4321648 98.6876272,48.866701 C98.326594,49.5710743 98.0291715,50.2673885 97.6337542,50.9089002 C94.8916213,55.3462912 94.7145431,59.9771028 97.0010865,64.5144278 C97.8125516,66.1230425 99.5162843,67.4608683 101.092796,68.5730368 C103.697392,70.4121443 106.814312,71.6484244 108.301425,74.6593384 C109.253865,76.5870971 109.616617,78.5470925 109.028649,80.6747192 C109.056156,77.8636731 106.551274,76.667689 104.852698,75.1138768 C101.371307,71.9304961 97.5477939,69.0807659 93.9735655,65.9844244 C93.1483468,65.27038 92.5861666,64.172718 92.1959069,63.1540362 C90.5299967,58.8117437 88.9878693,54.4291552 87.3580624,50.0755797 C87.1723882,49.5807454 86.7064835,49.1810094 86.3695192,48.7361421 C86.2130715,49.2906145 85.8073389,49.903113 85.9379986,50.3882764 C86.9024729,53.9327089 87.9752572,57.4513521 89.0119382,60.9780544 C89.144317,61.4293692 89.261223,61.8839076 89.5414535,62.8993657 C82.1076085,58.3265803 74.6754828,54.7773122 66.7636986,52.1838643 C66.6227238,52.3627784 66.4800297,52.5416924 66.3373356,52.7189946" id="Fill-10"></path>
                <path d="M126.929361,143.496603 C123.42562,146.341498 123.905279,155.325885 127.618763,156.354237 C126.349989,152.037734 124.900699,147.838895 126.929361,143.496603 M124.219893,108.771157 C126.515033,115.900318 129.260604,122.457277 134.064064,128.377559 C133.534549,128.683808 132.994719,128.994893 132.454888,129.30759 C132.155746,128.844992 131.727664,128.414631 131.579812,127.911738 C130.663476,124.823455 129.619918,121.809318 126.726495,119.607546 C126.860593,120.052414 126.870908,120.584321 127.1477,120.927642 C128.842837,123.032703 129.580376,125.429507 129.790119,128.013284 C129.812469,128.301803 129.87436,128.608052 130.00502,128.865946 C130.911041,130.671205 131.765487,132.505477 132.812483,134.238203 C133.113344,134.737873 133.9867,134.934517 134.598737,135.26978 C134.579826,134.626656 134.650314,133.965803 134.514496,133.346857 C134.41994,132.91972 134.036557,132.550609 133.593002,131.860742 C134.784412,131.454558 135.784989,130.972619 136.84402,130.777586 C141.375846,129.941042 145.99707,129.409136 149.975312,132.196004 C151.737498,133.430672 153.384497,135.177905 154.300833,137.031519 C157.422911,143.349926 158.712315,149.968134 156.721475,156.89098 C156.243536,158.547949 155.803419,160.221038 155.475051,161.908632 C155.306569,162.76613 155.110579,163.800931 155.459578,164.534317 C157.307724,168.428519 156.791962,172.714397 157.936953,176.705309 C158.292829,177.944812 158.860167,179.155303 159.515184,180.285202 C159.812607,180.799378 160.49685,181.242634 161.108888,181.444113 C163.149585,182.117862 165.2367,182.665887 167.743302,183.389602 C164.471654,183.458911 161.409749,184.827362 159.044122,182.203289 C158.193115,181.261976 157.596551,180.030531 157.206291,178.839383 C156.860731,177.786852 156.920903,176.606986 156.874484,175.481923 C156.764455,172.841732 155.435509,170.66575 153.169596,169.410128 C151.888788,168.699307 149.920298,168.9298 148.26986,168.981379 C142.235449,169.169964 136.163215,171.3669 130.19929,168.581643 C128.045126,167.575856 126.135088,166.415332 124.63766,164.498857 C121.008417,159.850315 118.812992,154.818155 119.058838,149.002643 C119.20669,145.50173 120.415291,142.279665 122.388939,139.31227 C123.124759,138.206549 123.848545,137.087934 124.66001,136.030568 C126.157438,134.080243 126.668042,134.017381 128.911605,135.437411 C128.442262,135.756555 128.01418,136.045074 127.481226,136.407738 C127.684093,136.712375 127.878363,137.226552 128.048564,137.220104 C128.849714,137.186256 130.125364,137.239446 130.340265,136.83971 C130.807889,135.967706 131.093277,134.742709 130.814766,133.833632 C129.920779,130.912981 128.734527,128.069698 127.355724,125.253816 C126.513314,126.838253 124.835369,127.847264 125.409584,129.923312 C125.5901,130.577718 124.101268,131.717288 123.250261,132.518372 C122.569456,133.159883 121.699538,133.625705 120.57002,133.920671 C121.266298,133.206627 121.835355,132.283043 122.688081,131.828505 C123.833072,131.214395 124.209578,130.453607 124.390095,129.293083 C124.57233,128.126112 125.033078,126.957529 125.596977,125.893716 C126.301851,124.563949 126.834805,123.358294 125.975202,121.877015 C125.662307,121.338661 125.578066,120.413466 125.860015,119.886395 C127.269764,117.265545 126.147123,115.073445 124.402129,113.244009 C122.995819,111.770788 123.298399,110.582864 124.219893,108.771157" id="Fill-12"></path>
                <path d="M103.861061,196.210326 C102.042141,194.924079 100.996864,193.699082 100.610043,191.953461 C100.393423,190.971851 99.8381196,190.053103 99.4169142,189.113401 C98.5108929,187.084097 98.3836717,185.053181 99.7057408,183.165718 C101.691423,180.332106 102.232973,177.135831 102.600883,173.879917 C102.788276,172.213276 101.865063,171.449265 100.195714,171.04147 C94.7372366,169.710091 89.5607086,167.99026 86.8821863,162.622838 C85.0374787,158.925281 83.1532294,155.279302 84.095354,151.074016 C85.7887715,143.522553 89.748102,137.521679 97.7630385,134.586522 C100.028951,133.756425 102.329249,133.211623 104.94416,133.857971 C106.513795,134.244812 108.446182,133.759648 110.108654,133.316393 C113.497208,132.412152 116.012406,133.630701 118.245654,135.811519 C119.124168,136.670629 119.242793,137.586153 118.689209,138.733782 C115.281743,145.774292 114.836469,152.901841 118.374594,160.019719 C119.222163,161.723432 118.99007,163.024186 117.43247,164.057374 C115.553378,165.304937 113.718986,166.749144 111.619836,167.53411 C108.533861,168.688186 107.755061,171.0592 106.701188,173.576892 C105.35677,176.787674 103.75447,179.933982 101.918358,182.92233 C100.618639,185.038674 100.003163,186.922913 101.127524,189.263302 C102.147013,191.390929 102.865641,193.644279 103.861061,196.210326" id="Fill-14"></path>
                <path d="M136.725739,71.1653564 C137.17617,69.7259847 137.492504,68.6637833 137.843222,67.6112528 C139.32002,63.1641908 138.910849,58.9814702 136.000234,55.0824332 C134.681603,53.3158584 134.858681,51.3961589 136.270149,49.6811629 C138.831765,46.5654793 141.018595,43.2676581 142.168743,39.4282591 C143.244966,35.8274122 142.158428,32.4119267 140.793379,29.2011447 C140.196815,27.7988453 138.164714,26.9268408 136.761842,25.8404617 C136.375021,25.5422716 135.795648,25.4213837 135.505103,25.0732266 C135.236907,24.7556945 135.133754,24.2270115 135.180173,23.8143809 C135.195646,23.6805983 135.931466,23.4904014 136.302814,23.543592 C137.231185,23.6741509 138.207694,23.7918151 139.043228,24.1593143 C142.206566,25.5551663 144.623769,24.2350707 147.027218,22.4846142 C147.850718,21.8850104 149.532101,20.9920519 149.72809,21.1886962 C150.603166,22.0671481 151.670793,23.3276057 151.596867,24.3849717 C151.313198,28.4516398 152.138417,32.0750525 154.667368,35.459913 C155.224391,36.2061942 154.971667,37.7857958 154.571093,38.7996421 C153.398594,41.7815431 150.713195,43.6593348 148.406021,45.8433758 C146.762461,47.3987998 145.259875,49.2749796 144.350415,51.2720474 C143.382503,53.4012858 143.012873,55.8190434 142.722328,58.1481498 C142.567599,59.3779825 143.045538,60.709361 143.401414,61.9537002 C144.31775,65.156423 142.0037,68.576744 139.192799,69.9693723 C138.493082,70.3159176 137.786488,70.65118 136.725739,71.1653564" id="Fill-16"></path>
                <path d="M120.814663,165.801061 C123.458801,167.464478 125.812393,169.268125 128.461689,170.522135 C131.080039,171.761639 133.997531,172.44667 136.933934,173.423445 C136.015879,174.369594 134.999828,175.470479 133.921886,176.511727 C133.120736,177.283797 132.962569,177.95271 133.853118,178.786031 C134.826188,179.696719 135.611865,180.792769 136.634793,181.645432 C137.666316,182.50293 137.750557,183.281448 136.916742,184.234044 C136.877201,184.279176 136.83594,184.324307 136.798117,184.371051 C133.796384,187.978345 133.753404,190.950575 136.650265,194.680369 C138.006719,196.427602 138.639386,198.851806 138.084083,201.865944 C136.371754,198.142598 134.492662,194.474054 133.053687,190.660444 C132.653112,189.599854 133.383775,188.041207 133.902975,186.827492 C134.609568,185.178582 135.113296,184.005163 133.995812,181.990365 C131.588924,177.652908 127.889194,178.690932 124.409522,179.305043 C121.478276,179.822443 118.682848,179.990074 115.787706,179.41626 C112.693136,178.803761 111.235249,176.466595 109.925215,174.229364 C109.182518,172.962459 110.52006,171.798711 111.723504,171.055654 C112.455885,170.604339 113.360187,170.401248 114.099446,169.957992 C116.461634,168.541186 118.784281,167.06313 120.814663,165.801061" id="Fill-18"></path>
                <path d="M111.48419,95.3854843 C112.670442,95.5934115 114.200535,95.6756153 115.579338,96.1430484 C117.798832,96.8957769 118.510583,99.3441594 116.889373,100.901195 C115.46759,102.268034 113.846379,103.638097 112.02574,104.413391 C107.201649,106.465261 102.104204,106.97299 96.8829771,105.788289 C95.3374113,105.435297 93.5752256,103.012703 93.4875461,101.046261 C93.4136202,99.3586659 94.2078932,98.3512669 96.4342645,97.9370245 C101.311651,97.0311713 106.218263,96.2687718 111.48419,95.3854843" id="Fill-20"></path>
                <path d="M98.4952481,109.170248 C104.643127,108.393342 110.854617,107.824363 116.397336,104.771541 C117.807085,103.994635 119.141188,104.30572 120.019702,105.213185 C120.65237,105.869203 121.113117,107.311799 120.765837,108.024231 C120.091909,109.405577 119.044913,110.911034 117.705651,111.676657 C113.479844,114.091191 108.774378,115.61599 103.895273,116.225265 C101.135948,116.57181 98.201264,116.076976 95.9886464,114.018658 C94.8213058,112.930667 94.3932236,111.567052 95.3267522,110.322713 C95.943947,109.499063 97.1680214,109.073538 98.1204613,108.470711 C98.2459633,108.704427 98.3697461,108.936532 98.4952481,109.170248" id="Fill-22"></path>
                <path d="M104.733214,119.308712 C106.112017,118.950884 107.492539,118.604338 108.867903,118.233615 C110.255302,117.858057 111.670208,117.538913 113.011189,117.048914 C115.053605,116.301021 117.083987,115.503161 119.040443,114.577966 C120.207783,114.025106 121.106928,113.83652 122.024983,114.911617 C122.970547,116.022173 124.043331,117.192368 122.612952,118.467332 C121.306356,119.632691 119.819243,120.725518 118.211785,121.466963 C115.287417,122.81446 112.216916,123.883109 109.203148,125.056527 C108.916041,125.169356 108.601426,125.245112 108.291969,125.274125 C106.801418,125.420803 105.310867,125.569092 103.815158,125.669026 C102.130336,125.781855 100.161846,124.236102 100.000241,122.720973 C99.7801824,120.649761 100.899385,119.357067 103.146387,119.108844 C103.646676,119.054041 104.152122,119.045982 104.655849,119.016969 C104.681638,119.113679 104.707426,119.21039 104.733214,119.308712" id="Fill-24"></path>
                <path d="M103.794699,129.721187 C110.088711,127.495239 116.382723,125.267678 122.594212,123.072354 C122.628597,124.485936 120.096207,126.918201 115.368391,128.726683 C111.747744,130.112864 107.965492,132.024504 103.875502,130.33691 C103.847995,130.130594 103.822207,129.925891 103.794699,129.721187" id="Fill-26"></path>
                <path d="M102.201512,93.2612426 C97.7865916,91.9572653 93.667375,90.7435511 89.2902775,89.4508567 C91.1263891,88.7738846 92.7166543,88.1227019 94.3584956,87.6214201 C94.8450308,87.473131 95.6513382,87.5585585 96.0123714,87.8567485 C97.9963347,89.4895408 99.8874608,91.2190434 102.201512,93.2612426" id="Fill-28"></path>
                <path d="M119.602623,133.404561 C118.595168,132.645385 117.936713,132.148938 116.973957,131.425223 C118.863364,130.387199 120.443314,129.52003 122.023264,128.652861 C122.165958,128.849505 122.308652,129.04615 122.451346,129.242794 C121.865097,129.653813 121.093174,129.956838 120.740737,130.500028 C120.23701,131.275322 120.04102,132.226307 119.602623,133.404561" id="Fill-30"></path>
                <path d="M120.208643,100.799327 C120.889448,99.2374557 119.797753,96.840652 118.083705,94.5615126 C120.779419,96.6343367 120.32211,99.3680146 120.208643,100.799327" id="Fill-32"></path>
                <path d="M136.636856,127.663192 C135.895878,126.942701 135.1549,126.220597 134.413923,125.501717 L134.871232,125.085863 C135.605332,125.812802 136.337714,126.541353 137.070095,127.268292 C136.925682,127.398851 136.781269,127.531022 136.636856,127.663192" id="Fill-34"></path>
            </g>
        </g>
    </g>
</svg>