<?xml version="1.0" encoding="utf-8"?>
<!-- Generator: Adobe Illustrator 21.0.2, SVG Export Plug-In . SVG Version: 6.00 Build 0)  -->
<svg version="1.1" id="Layer_1" xmlns="http://www.w3.org/2000/svg" xmlns:xlink="http://www.w3.org/1999/xlink" x="0px" y="0px"
	 viewBox="0 0 178 202" style="enable-background:new 0 0 178 202;" xml:space="preserve">
<style type="text/css">
	.st0{stroke:#FFFFFF;stroke-miterlimit:10;}
</style>
<title>local_food_illu</title>
<desc>Created with Sketch.</desc>
<g id="Page-1">
	<g id="ui_illustrations" transform="translate(-325.000000, 0.000000)">
		<g id="local_food_illu" transform="translate(325.000000, 0.000000)">
			<path id="Fill-4" class="st0" d="M126.3,44.6c-1.9,2.4-3.7,4.8-5.5,7.2c-0.3,0.4-0.6,0.7-1.3,1.4c-0.4-10.6-3.2-20.4-5.1-30.4
				c-1.5,1.4-0.6,3-0.5,4.5c0.8,9,3.4,17.9,2.9,27c-0.2,3.5-0.4,6.9-0.6,10.4c-0.2,0.1-0.4,0.2-0.6,0.3c-2.5-3.2-5-6.3-7.5-9.5
				c-0.2,0.1-0.5,0.1-0.7,0.2c0.1,0.7,0,1.6,0.3,2.2c1.1,1.8,2.5,3.4,3.6,5.2c1.5,2.4,3,4.9,4.4,7.4c0.2,0.3,0.1,0.8,0.1,1.2
				c-0.1,2.3,0,4.6-0.3,6.9c-0.1,0.7-0.8,1.7-1.6,2c-1.1,0.5-2,0.1-1.9-1.3c0.5-5.4-2.6-9-7.2-11.5c-4-2.2-6.7-5.2-6.3-9.7
				c0.1-1.9,1.1-3.9,2-5.7c1.6-2.9,2.7-5.8,2.7-9.1c0-2.6-1-4.7-3.1-6.4c-2.3-2-4.1-4.3-5.5-6.9c-1.4-2.8-0.1-7.5,2.8-9
				c6.9-3.6,7.4-7.5,5.8-13.8c-0.5-1.9-0.2-3.5,0.8-4.9c0.7-0.9,2.1-1.4,3.3-1.8c0.8-0.3,1.9-0.1,2.8,0c1.9,0,3.4,0.4,4.4,2.3
				c1.9,3.7,5.5,4.7,9.6,4.2c5.3-0.6,8.2,1.7,8,6.8c-0.1,2.6-0.3,5.2-0.6,7.8c-0.4,4.1,0.5,5.8,4,7.1c2.5,0.9,3.1,3,3.3,5
				c0.5,3.7-0.2,7.2-2.5,10.3c-1.2,1.6-2.4,3.4-3.5,5.1c-1.2,1.8-1.1,5.6,0.3,7.5c3.1,4.1,2.5,11.1-1.5,14.5
				c-2.2,1.9-4.4,3.7-6.9,5.2c-1.4,0.9-3.3,1.1-5,1.5c-0.2,0.1-0.9-0.6-0.9-1c0-5.6-0.2-11.1,0.2-16.7c0.2-2.2,1.5-4.3,2.7-6.3
				c1.9-3.2,4.1-6.2,6.2-9.3c-0.2-0.2-0.3-0.4-0.5-0.6C127.2,44.1,126.6,44.3,126.3,44.6z"/>
			<path id="Fill-6" class="st0" d="M52.5,87.2c-4.1-0.9-8,1.1-8.5,4.3C46.8,90.1,49.4,88.8,52.5,87.2 M97.4,95
				c-1.6-0.2-3.4-0.1-4.9-0.6c-4.4-1.4-7.2-1-10,2.6c-2.8,3.5-6.3,5.1-10.9,4.9c-2.5-0.1-4.6-0.8-6.5-2.5c-3.1-3-6.8-4-11.1-2.5
				c-5.5,2-10.8,1.9-16.2-0.5c-3.7-1.7-6.2-0.8-9.4,2.5c-1.8,1.8-3.6,3.6-5.6,5.3c-3.2,2.8-6.4,3-10,0.8c-0.5-0.3-1.1-0.6-1.6-1
				c-1.2-0.8-2.4-1.1-3.9-0.4c-1.1,0.5-2.4,0.9-3.6,0.9c-1,0-2.3-0.4-2.8-1.1c-1.6-2-1.2-5.5,0.8-7.4c2.3-2.2,4.7-4.2,7-6.5
				c0.7-0.7,1.1-1.7,1.5-2.6c0.8-2.2,1.3-4.6,2.3-6.7c1.1-2.4,2.4-4.9,4.2-6.9c2.6-2.9,6.1-4.9,10.5-4.1c3,0.5,6,1.3,9,1.6
				c1.3,0.2,2.8-0.3,4.1-0.7c0.9-0.3,1.6-0.9,2.4-1.4c5.2-3.1,9.2-2.5,13,2c0.6,0.7,1.2,1.5,1.8,2.3c1.6,2.2,4.5,3.2,7.2,2.5
				c1.1-0.3,2.1-0.7,3.2-1C69.2,74,70,74,71,75.2c3.1,3.6,6.4,7.2,9.7,10.6c0.9,1,2.2,1.7,3.6,2.7c-0.8,0-1.3,0.2-1.8,0.1
				c-1.8-0.5-3.6-0.7-5.4-0.8c-1-0.1-2-1.2-2.9-1.9c-1.4-1.2-2.7-2.5-4.2-3.6c-0.5-0.4-1.1-0.5-1.7-0.8c-0.2,0.2-0.3,0.3-0.5,0.5
				c1.6,1.6,3.2,3.2,4.8,4.8c-0.1,0.2-0.2,0.3-0.3,0.5c-4.3-0.7-8.5-1.3-12.8-2c-4.1-0.6-8.2-1.4-12.4-1.6
				c-4.1-0.2-8.2,0.1-12.3,0.3c-0.8,0-1.6,0.6-2.3,1.3c14.5-1.4,28.1,2.5,41.9,4.8c0.1,0.2,0.1,0.4,0.2,0.5
				c-0.9,0.5-1.9,0.9-2.8,1.5c-0.9,0.6-1.9,1.1-2.7,1.9c-0.3,0.3,0,1.1,0,1.6c0.5-0.1,1.2,0,1.6-0.3c2.1-1.3,4-2.8,6.2-4
				c0.7-0.4,1.7-0.4,2.6-0.4c1.1,0,2.3,0.2,3.4,0.2c5.2-0.3,9.7,2.1,14.6,3.1C97.6,94.4,97.5,94.7,97.4,95"/>
			<path id="Fill-8" class="st0" d="M103.8,89c0.3-0.1,0.5-0.2,0.8-0.3c-0.5-1.9-1-3.8-1.5-5.8c-0.3,0.1-0.6,0.2-0.9,0.2
				C102.8,85.1,103.3,87.1,103.8,89 M156.3,94.9c-1-1.7-2.4-1.2-3.7-1.3c-1-0.1-2,0.2-1.7,1.2c0.2,0.6,1.4,1.2,2,1.2
				C154.1,96,155.1,95.4,156.3,94.9 M154.4,112.2c-1.3,0.5-2.5,0.8-3.5,1.3c-0.4,0.2-0.6,1.1-0.6,1.6c0,0.2,0.9,0.6,1.3,0.6
				c1-0.1,1.9-0.5,2.9-0.7c1.1-0.2,2.6-0.2,2.3-1.6C156.8,112.9,155.3,112.6,154.4,112.2 M151.9,108.5c1.8-0.7,3.4-1.3,5-2.1
				c0.3-0.1,0.4-0.9,0.2-1.2c-0.7-1.3-3.2-1.7-4.4-0.7c-0.6,0.5-1.3,1-1.8,1.6c-0.3,0.4-0.6,1.1-0.4,1.5
				C150.7,108,151.5,108.2,151.9,108.5 M132.4,115.7c1,0.5,1.9,1.2,2.9,1.5c0.8,0.2,1.7-0.2,2.5-0.4c-0.4-0.6-0.6-1.4-1.2-1.8
				c-2.1-1.4-4.3-2.7-6.4-4.1c-0.6-0.4-0.9-1.2-1.3-1.8c-0.1-0.2-0.1-0.5-0.3-0.6c-1-1-2.5-1.8-3.1-2.9c-0.9-1.6-1.3-3.5-1.8-5.3
				c-0.5-1.5-0.8-3.1-1.2-4.6c-0.1-0.2-0.2-0.5-0.2-0.7c0.1-2.2-0.2-2.7-2.5-3c-1.3-0.2-2.8,0-4.1,0.2c-2.9,0.4-5.7,0.7-8-1.5
				c-0.3-0.3-0.8-0.4-1.2-0.3c-4.1,0.2-7.5-1.9-8.4-5.4c-0.2-0.9,0.1-2.3,0.7-3c0.8-1,2-1.5,3.5-0.6c1.5,0.9,3.2,1.5,4.9,2
				c4.1,1.4,8.1,1.5,11.8-0.9c2.9-1.9,6.3-2.2,9.6-2.9c1-0.2,2.3,0.6,3.4,0.9c0.2,0,0.4,0.3,0.5,0.2c3.2-1,4.6,1.5,6.5,2.8
				c0.7,0.5,1.2,1.2,1.8,1.8c3.7,4.4,8.3,2.8,12.7,1.5c2.5-0.7,4.9-1.6,7.2-2.6c1.2-0.5,2.4-1.3,3.3-2.2c1.8-1.7,3.6-3.4,5.1-5.3
				c1.3-1.7,1.2-1.8,2-2c0.8,2.6,1.2,5,0.4,7.7c-0.6,2.2-0.5,4.6-0.5,6.9c0,0.9,0.4,1.7,0.7,2.6c0.5,1.8,1.5,3.2,3.5,3.6
				c1.5,0.4,1.8,1.2,1.2,2.4c-1.2,2.5-2.3,5.1-3.7,7.5c-2.3,3.6-2.3,5.9,0.8,9c1.1,1.1,1.4,3.2,3.6,3.3c0.1,0,0.3,0.4,0.2,0.6
				c-0.4,1.7-2.8,2.8-4.6,2.2c-4.5-1.6-9.1-3.1-14-3.6c-4.5-0.4-8.1,1-11.5,3.5c-2,1.5-4.6,2.4-6.9,3.5c-1.2,0.5-2.3,0.2-3.1-1
				c-1.6-2.3-3.2-4.6-4.9-6.9C132.2,115.8,132.3,115.7,132.4,115.7"/>
			<path id="Fill-10" class="st0" d="M66.3,52.7c0.5,0.4,0.9,0.9,1.4,1.2c3.3,1.7,6.8,3.2,10.1,5c5,2.8,9.9,5.9,14.8,8.9
				c1.1,0.7,2.1,1.6,3.1,2.6c-4.8-0.6-9.5-1.1-14.1,0.4c0,0.2,0,0.5-0.1,0.7c0.8,0.1,1.6,0.5,2.4,0.4c5.1-0.4,10,0.6,14.8,1.8
				c2,0.5,3.5,2.5,5.3,3.7c-0.1,0.1-0.2,0.3-0.3,0.4c-1,0-2,0-3.1,0c-2.9,0-5,1.6-5.8,4.2c-1,3.5-5.3,5.5-8.8,3.9
				c-1.6-0.7-3.2-1.8-4.4-3c-2.4-2.4-4.7-4.9-6.6-7.5c-1.3-1.7-2.3-3.7-2.7-5.8c-1-4.6-2.4-6.3-7.3-6.9c-6.8-0.7-10.3-4.9-12-10.4
				c-1.7-5.4-5.2-9.5-9.8-12.9c-2.5-1.9-3.2-4.5-3.7-7.2c-0.1-0.3,0.1-0.7,0.3-1c1-1.5,5.3-2.8,7.1-2.4c4,0.9,8.1,1.8,11.8-1
				c1.1-0.8,2.3-0.8,3.5,0c1.8,1.2,3.9,2,5.5,3.4c1,0.8,1.8,2.1,2.3,3.4c1.7,4.7,6.6,7,11.7,5.4c3-1,6.1-1.6,9.3-0.4
				c1.7,0.7,2.9,1.6,3.3,3.4c0.6,2.4,1.8,4.4,4.3,5.8c-0.4,0.7-0.7,1.4-1.1,2c-2.7,4.4-2.9,9.1-0.6,13.6c0.8,1.6,2.5,2.9,4.1,4.1
				c2.6,1.8,5.7,3.1,7.2,6.1c1,1.9,1.3,3.9,0.7,6c0-2.8-2.5-4-4.2-5.6c-3.5-3.2-7.3-6-10.9-9.1c-0.8-0.7-1.4-1.8-1.8-2.8
				c-1.7-4.3-3.2-8.7-4.8-13.1c-0.2-0.5-0.7-0.9-1-1.3c-0.2,0.6-0.6,1.2-0.4,1.7c1,3.5,2,7.1,3.1,10.6c0.1,0.5,0.2,0.9,0.5,1.9
				c-7.4-4.6-14.9-8.1-22.8-10.7C66.6,52.4,66.5,52.5,66.3,52.7"/>
			<path id="Fill-12" class="st0" d="M126.9,143.5c-3.5,2.8-3,11.8,0.7,12.9C126.3,152,124.9,147.8,126.9,143.5 M124.2,108.8
				c2.3,7.1,5,13.7,9.8,19.6c-0.5,0.3-1.1,0.6-1.6,0.9c-0.3-0.5-0.7-0.9-0.9-1.4c-0.9-3.1-2-6.1-4.9-8.3c0.1,0.4,0.1,1,0.4,1.3
				c1.7,2.1,2.4,4.5,2.6,7.1c0,0.3,0.1,0.6,0.2,0.9c0.9,1.8,1.8,3.6,2.8,5.4c0.3,0.5,1.2,0.7,1.8,1c0-0.6,0.1-1.3-0.1-1.9
				c-0.1-0.4-0.5-0.8-0.9-1.5c1.2-0.4,2.2-0.9,3.3-1.1c4.5-0.8,9.2-1.4,13.1,1.4c1.8,1.2,3.4,3,4.3,4.8c3.1,6.3,4.4,12.9,2.4,19.9
				c-0.5,1.7-0.9,3.3-1.2,5c-0.2,0.9-0.4,1.9,0,2.6c1.8,3.9,1.3,8.2,2.5,12.2c0.4,1.2,0.9,2.4,1.6,3.6c0.3,0.5,1,1,1.6,1.2
				c2,0.7,4.1,1.2,6.6,1.9c-3.3,0.1-6.3,1.4-8.7-1.2c-0.9-0.9-1.4-2.2-1.8-3.4c-0.3-1.1-0.3-2.2-0.3-3.4c-0.1-2.6-1.4-4.8-3.7-6.1
				c-1.3-0.7-3.2-0.5-4.9-0.4c-6,0.2-12.1,2.4-18.1-0.4c-2.2-1-4.1-2.2-5.6-4.1c-3.6-4.6-5.8-9.7-5.6-15.5c0.1-3.5,1.4-6.7,3.3-9.7
				c0.7-1.1,1.5-2.2,2.3-3.3c1.5-2,2-2,4.3-0.6c-0.5,0.3-0.9,0.6-1.4,1c0.2,0.3,0.4,0.8,0.6,0.8c0.8,0,2.1,0,2.3-0.4
				c0.5-0.9,0.8-2.1,0.5-3c-0.9-2.9-2.1-5.8-3.5-8.6c-0.8,1.6-2.5,2.6-1.9,4.7c0.2,0.7-1.3,1.8-2.2,2.6c-0.7,0.6-1.6,1.1-2.7,1.4
				c0.7-0.7,1.3-1.6,2.1-2.1c1.1-0.6,1.5-1.4,1.7-2.5c0.2-1.2,0.6-2.3,1.2-3.4c0.7-1.3,1.2-2.5,0.4-4c-0.3-0.5-0.4-1.5-0.1-2
				c1.4-2.6,0.3-4.8-1.5-6.6C123,111.8,123.3,110.6,124.2,108.8"/>
			<path id="Fill-14" class="st0" d="M103.9,196.2c-1.8-1.3-2.9-2.5-3.3-4.3c-0.2-1-0.8-1.9-1.2-2.8c-0.9-2-1-4.1,0.3-5.9
				c2-2.8,2.5-6,2.9-9.3c0.2-1.7-0.7-2.4-2.4-2.8c-5.5-1.3-10.6-3.1-13.3-8.4c-1.8-3.7-3.7-7.3-2.8-11.5c1.7-7.6,5.7-13.6,13.7-16.5
				c2.3-0.8,4.6-1.4,7.2-0.7c1.6,0.4,3.5-0.1,5.2-0.5c3.4-0.9,5.9,0.3,8.1,2.5c0.9,0.9,1,1.8,0.4,2.9c-3.4,7-3.9,14.2-0.3,21.3
				c0.8,1.7,0.6,3-0.9,4c-1.9,1.2-3.7,2.7-5.8,3.5c-3.1,1.2-3.9,3.5-4.9,6c-1.3,3.2-2.9,6.4-4.8,9.3c-1.3,2.1-1.9,4-0.8,6.3
				C102.1,191.4,102.9,193.6,103.9,196.2"/>
			<path id="Fill-16" class="st0" d="M136.7,71.2c0.5-1.4,0.8-2.5,1.1-3.6c1.5-4.4,1.1-8.6-1.8-12.5c-1.3-1.8-1.1-3.7,0.3-5.4
				c2.6-3.1,4.7-6.4,5.9-10.3c1.1-3.6,0-7-1.4-10.2c-0.6-1.4-2.6-2.3-4-3.4c-0.4-0.3-1-0.4-1.3-0.8c-0.3-0.3-0.4-0.8-0.3-1.3
				c0-0.1,0.8-0.3,1.1-0.3c0.9,0.1,1.9,0.2,2.7,0.6c3.2,1.4,5.6,0.1,8-1.7c0.8-0.6,2.5-1.5,2.7-1.3c0.9,0.9,1.9,2.1,1.9,3.2
				c-0.3,4.1,0.5,7.7,3.1,11.1c0.6,0.7,0.3,2.3-0.1,3.3c-1.2,3-3.9,4.9-6.2,7c-1.6,1.6-3.1,3.4-4.1,5.4c-1,2.1-1.3,4.5-1.6,6.9
				c-0.2,1.2,0.3,2.6,0.7,3.8c0.9,3.2-1.4,6.6-4.2,8C138.5,70.3,137.8,70.7,136.7,71.2"/>
			<path id="Fill-18" class="st0" d="M120.8,165.8c2.6,1.7,5,3.5,7.6,4.7c2.6,1.2,5.5,1.9,8.5,2.9c-0.9,0.9-1.9,2-3,3.1
				c-0.8,0.8-1,1.4-0.1,2.3c1,0.9,1.8,2,2.8,2.9c1,0.9,1.1,1.6,0.3,2.6c0,0-0.1,0.1-0.1,0.1c-3,3.6-3,6.6-0.1,10.3
				c1.4,1.7,2,4.2,1.4,7.2c-1.7-3.7-3.6-7.4-5-11.2c-0.4-1.1,0.3-2.6,0.8-3.8c0.7-1.6,1.2-2.8,0.1-4.8c-2.4-4.3-6.1-3.3-9.6-2.7
				c-2.9,0.5-5.7,0.7-8.6,0.1c-3.1-0.6-4.6-2.9-5.9-5.2c-0.7-1.3,0.6-2.4,1.8-3.2c0.7-0.5,1.6-0.7,2.4-1.1
				C116.5,168.5,118.8,167.1,120.8,165.8"/>
			<path id="Fill-20" class="st0" d="M111.5,95.4c1.2,0.2,2.7,0.3,4.1,0.8c2.2,0.8,2.9,3.2,1.3,4.8c-1.4,1.4-3,2.7-4.9,3.5
				c-4.8,2.1-9.9,2.6-15.1,1.4c-1.5-0.4-3.3-2.8-3.4-4.7c-0.1-1.7,0.7-2.7,2.9-3.1C101.3,97,106.2,96.3,111.5,95.4"/>
			<path id="Fill-22" class="st0" d="M98.5,109.2c6.1-0.8,12.4-1.3,17.9-4.4c1.4-0.8,2.7-0.5,3.6,0.4c0.6,0.7,1.1,2.1,0.7,2.8
				c-0.7,1.4-1.7,2.9-3.1,3.7c-4.2,2.4-8.9,3.9-13.8,4.5c-2.8,0.3-5.7-0.1-7.9-2.2c-1.2-1.1-1.6-2.5-0.7-3.7
				c0.6-0.8,1.8-1.2,2.8-1.9C98.2,108.7,98.4,108.9,98.5,109.2"/>
			<path id="Fill-24" class="st0" d="M104.7,119.3c1.4-0.4,2.8-0.7,4.1-1.1c1.4-0.4,2.8-0.7,4.1-1.2c2-0.7,4.1-1.5,6-2.5
				c1.2-0.6,2.1-0.7,3,0.3c0.9,1.1,2,2.3,0.6,3.6c-1.3,1.2-2.8,2.3-4.4,3c-2.9,1.3-6,2.4-9,3.6c-0.3,0.1-0.6,0.2-0.9,0.2
				c-1.5,0.1-3,0.3-4.5,0.4c-1.7,0.1-3.7-1.4-3.8-2.9c-0.2-2.1,0.9-3.4,3.1-3.6c0.5-0.1,1-0.1,1.5-0.1
				C104.7,119.1,104.7,119.2,104.7,119.3"/>
			<path id="Fill-26" class="st0" d="M103.8,129.7c6.3-2.2,12.6-4.5,18.8-6.6c0,1.4-2.5,3.8-7.2,5.7c-3.6,1.4-7.4,3.3-11.5,1.6
				C103.8,130.1,103.8,129.9,103.8,129.7"/>
			<path id="Fill-28" class="st0" d="M102.2,93.3c-4.4-1.3-8.5-2.5-12.9-3.8c1.8-0.7,3.4-1.3,5.1-1.8c0.5-0.1,1.3-0.1,1.7,0.2
				C98,89.5,99.9,91.2,102.2,93.3"/>
			<path id="Fill-30" class="st0" d="M119.6,133.4c-1-0.8-1.7-1.3-2.6-2c1.9-1,3.5-1.9,5-2.8c0.1,0.2,0.3,0.4,0.4,0.6
				c-0.6,0.4-1.4,0.7-1.7,1.3C120.2,131.3,120,132.2,119.6,133.4"/>
			<path id="Fill-32" class="st0" d="M120.2,100.8c0.7-1.6-0.4-4-2.1-6.2C120.8,96.6,120.3,99.4,120.2,100.8"/>
			<path id="Fill-34" class="st0" d="M136.6,127.7c-0.7-0.7-1.5-1.4-2.2-2.2l0.5-0.4c0.7,0.7,1.5,1.5,2.2,2.2
				C136.9,127.4,136.8,127.5,136.6,127.7"/>
		</g>
	</g>
</g>
</svg>
