<?xml version="1.0" encoding="utf-8"?>
<!-- Generator: Adobe Illustrator 21.0.2, SVG Export Plug-In . SVG Version: 6.00 Build 0)  -->
<svg version="1.1" id="Layer_1" xmlns="http://www.w3.org/2000/svg" xmlns:xlink="http://www.w3.org/1999/xlink" x="0px" y="0px"
	 viewBox="0 0 204 192" style="enable-background:new 0 0 204 192;" xml:space="preserve">
<style type="text/css">
	.st0{stroke:#FFFFFF;stroke-miterlimit:10;}
</style>
<title>systems_thinking_illu</title>
<desc>Created with Sketch.</desc>
<g id="Page-1">
	<g id="ui_illustrations" transform="translate(-607.000000, -5.000000)">
		<g id="systems_thinking_illu" transform="translate(607.000000, 5.000000)">
			<g id="Capa_1">
				<g id="Group">
					<path id="Shape" class="st0" d="M91.8,108c4.1-2.6,7.9-5.7,11.1-9.3l11.7,6.8L125.2,87l-11.6-6.7c1.5-4.5,2.3-9.3,2.5-14.3
						l13.2-2.3l-3.7-21l-13.2,2.3c-1.8-4.5-4.3-8.8-7.3-12.6l8.6-10.3L97.5,8.3l-8.6,10.3c-4.2-2.3-8.8-4-13.6-5V0.2H54v13.5
						c-4.8,1-9.4,2.7-13.6,5L31.8,8.3L15.5,22l8.6,10.3c-3,3.8-5.4,8-7.3,12.6L3.7,42.6L0,63.6l13.2,2.3c0.2,5,1,9.8,2.5,14.3
						L4.1,87l10.6,18.4l11.7-6.8c3.2,3.6,7,6.8,11.1,9.3l-4.6,12.7l19.9,7.3l4.6-12.7c2.4,0.3,4.8,0.5,7.2,0.5
						c2.5,0,4.9-0.2,7.2-0.5l4.6,12.7l19.9-7.3L91.8,108z M64.7,91.4c-14.9,0-27.1-12.2-27.1-27.2c0-15,12.2-27.2,27.1-27.2
						s27.1,12.2,27.1,27.2C91.8,79.2,79.6,91.4,64.7,91.4z"/>
					<path id="Shape_1_" class="st0" d="M183.1,124l-9.2,3c-1.7-3-3.9-5.8-6.4-8.2l5.1-8.2l-12.9-8.1l-5.1,8.2
						c-3.2-1.2-6.6-1.9-10.1-2.2l-1.3-9.6l-15.1,2.1l1.3,9.6c-3.3,1.2-6.4,2.9-9.2,4.9l-7.1-6.5L103,120.3l7.1,6.5
						c-1.7,3-3.1,6.2-3.9,9.6l-9.6-0.3l-0.5,15.2l9.6,0.3c0.6,3.5,1.7,6.8,3.2,9.9l-7.6,5.9l9.3,12l7.6-5.9c2.6,2.2,5.6,4.1,8.8,5.5
						l-2,9.5l14.9,3.2l2-9.4c1.7,0,3.4-0.1,5.2-0.4c1.7-0.2,3.4-0.6,5.1-1.1l4.5,8.5l13.4-7.1l-4.5-8.5c2.7-2.2,5-4.8,6.9-7.7
						l8.9,3.6l5.7-14.1l-8.9-3.6c0.6-3.4,0.7-6.9,0.4-10.4l9.2-3L183.1,124z M144.7,164.6c-10.6,1.5-20.4-6-21.9-16.6
						c-1.5-10.6,5.9-20.5,16.5-22c10.6-1.5,20.4,6,21.9,16.6C162.7,153.3,155.3,163.2,144.7,164.6z"/>
					<path id="Shape_2_" class="st0" d="M203.6,71.2l0.4-12l-7.6-0.2c-0.5-2.7-1.3-5.3-2.6-7.8l6-4.7l-7.4-9.4l-6,4.7
						c-2.1-1.8-4.5-3.2-7-4.3l1.5-7.5l-11.7-2.4l-1.5,7.5c-2.7,0-5.4,0.4-8.1,1.2l-3.6-6.7l-10.6,5.7l3.6,6.7
						c-2.1,1.8-3.9,3.9-5.4,6.1l-7.1-2.8L132,56.3l7.1,2.8c-0.5,2.7-0.6,5.5-0.3,8.2l-7.2,2.4l3.8,11.4l7.2-2.4
						c1.4,2.4,3.1,4.6,5.1,6.4l-4,6.5l10.2,6.3l4-6.5c2.6,0.9,5.3,1.5,8,1.7l1.1,7.5l11.9-1.7l-1.1-7.5c1.3-0.5,2.5-1,3.7-1.7
						c1.2-0.7,2.4-1.4,3.5-2.2l5.7,5.1l8-9l-5.7-5.1c1.4-2.4,2.4-5,3-7.6L203.6,71.2z M175,77.6c-7.4,4-16.8,1.2-20.8-6.2
						c-4-7.5-1.2-16.8,6.2-20.8c7.4-4,16.7-1.2,20.8,6.2C185.2,64.2,182.4,73.6,175,77.6z"/>
				</g>
			</g>
			<circle id="Oval-6" class="st0" cx="64.5" cy="64.5" r="20.5"/>
			<circle id="Oval-6-Copy" class="st0" cx="168" cy="64" r="9"/>
		</g>
	</g>
</g>
</svg>
