<?xml version="1.0" encoding="utf-8"?>
<!-- Generator: Adobe Illustrator 21.0.2, SVG Export Plug-In . SVG Version: 6.00 Build 0)  -->
<svg version="1.1" id="Capa_1" xmlns="http://www.w3.org/2000/svg" xmlns:xlink="http://www.w3.org/1999/xlink" x="0px" y="0px"
	 viewBox="0 0 512 512" style="enable-background:new 0 0 512 512;" xml:space="preserve">
<g>
	<g>
		<path d="M209.4,312.1c38.4-19.9,76.5-39.7,114.9-59.6c-38.5-20.1-76.6-40-114.9-60C209.4,232.6,209.4,272.1,209.4,312.1z"/>
		<path d="M256,0C114.6,0,0,114.6,0,256s114.6,256,256,256s256-114.6,256-256S397.4,0,256,0z M430.4,341.5
			c-4.4,19.2-20.2,33.4-39.1,35.5c-44.8,5-90.2,5-135.4,5c-45.2,0-90.5,0-135.4-5c-18.9-2.1-34.6-16.3-39.1-35.5
			c-6.3-27.4-6.3-57.3-6.3-85.5s0.1-58.1,6.4-85.5c4.4-19.2,20.1-33.4,39.1-35.5c44.8-5,90.2-5,135.4-5c45.2,0,90.5,0,135.4,5
			c18.9,2.1,34.7,16.3,39.1,35.5c6.3,27.4,6.2,57.3,6.2,85.5S436.7,314.1,430.4,341.5z"/>
	</g>
</g>
</svg>
