<?xml version="1.0" encoding="utf-8"?>
<!-- Generator: Adobe Illustrator 21.0.2, SVG Export Plug-In . SVG Version: 6.00 Build 0)  -->
<svg version="1.1" id="Layer_1" xmlns="http://www.w3.org/2000/svg" xmlns:xlink="http://www.w3.org/1999/xlink" x="0px" y="0px"
	 viewBox="0 0 221 196" style="enable-background:new 0 0 221 196;" xml:space="preserve">
<style type="text/css">
	.st0{filter:url(#Adobe_OpacityMaskFilter);}
	.st1{fill:#FFFFFF;}
	.st2{mask:url(#mask-2);}
</style>
<title>zero_waste_illu</title>
<desc>Created with Sketch.</desc>
<g id="Page-1">
	<g id="ui_illustrations" transform="translate(0.000000, -3.000000)">
		<g id="zero_waste_illu" transform="translate(0.000000, 3.000000)">
			<g id="Group-3" transform="translate(38.000000, 39.409000)">
				<g id="Clip-2">
				</g>
				<defs>
					<filter id="Adobe_OpacityMaskFilter" filterUnits="userSpaceOnUse" x="0" y="0.6" width="143.5" height="143.4">
						<feColorMatrix  type="matrix" values="1 0 0 0 0  0 1 0 0 0  0 0 1 0 0  0 0 0 1 0"/>
					</filter>
				</defs>
				<mask maskUnits="userSpaceOnUse" x="0" y="0.6" width="143.5" height="143.4" id="mask-2">
					<g class="st0">
						<polygon id="path-1" class="st1" points="143.5,0.6 143.5,144 0,144 0,0.6 143.5,0.6 0,0.6 0,144 143.5,144 143.5,0.6 						
							"/>
					</g>
				</mask>
				<path id="Fill-1" class="st2" d="M61.4,62.4c-0.4-0.1-0.7-0.3-1.1-0.4c1.7-2.2,4.3-2.1,6.8-2.9c-0.5-0.4-0.7-0.7-1-0.7
					c-0.3-0.1-0.6,0.2-1,0.2c-2.6-0.1-4.3,1.5-6,3.1c-2.9-1.2-4.5-1.1-7.1,1.3c-1.5,1.4-2.7,3.2-1.6,5.6c-0.7-1.5-1.9-0.4-2.6-0.4
					c-0.5,0-0.8,1.4-1.3,2.2c-0.2-0.2-0.4-0.4-0.5-0.6C45,67.9,44.2,66,43.6,64c-0.3-0.8-0.2-1.7-0.4-2.5c-0.8-3.1-1.1-6.2,0.2-9.3
					c0.1-0.2,0.1-0.5,0.1-0.8c-0.1-1.7-0.3-3.3-0.4-5c-0.1-1.4-0.9-2.3-1.8-3.1c-0.3-0.3-1.1,0.1-1.8,0.2c-0.6-0.9-1.3-2-0.9-3.2
					c1.1-3.3,0.9-6.2-1.5-8.9c-1-1.1-2-1.1-2.9,0.2c-0.2,0.4-0.4,0.8-0.7,1c-0.2,0.2-0.7,0.4-1,0.3c-0.2,0-0.4-0.5-0.4-0.8
					c-0.1-1.7-0.6-3.4-1.8-4.6c-0.6-0.6-1.6-1.1-2.5-1.2c-1.1,0-2,0.8-2.3,1.9c-0.2,0.6,0,1.4,0,2.1c0,0.6,0.1,1.4-0.2,1.8
					c-1.6,2.5-1.4,6.3,1.1,8.5c1.6,1.4,1.4,2.3-0.1,3.8c-0.3,0.3-0.6,0.8-0.6,1.2c0.2,1.5,0.6,2.9,1.9,4c0.7,0.6,1.5,1.4,1.8,2.3
					c0.3,1.2,0.1,2.6,0.2,3.8c0,0.5,0,1.2,0.3,1.5c0.7,0.8,1.5,1.7,2.5,2.2c1.5,0.8,3.1,1.3,4.6,1.9c0.8,0.3,0.9,1.8,0.3,2.3
					c-1.7,1.2-4.4,0.8-5.7-0.9c-1.2-1.6-3.4-2.1-5.1-1.2c-0.2,0.1-0.5,0.2-0.7,0.3c-2.6,0.6-5.4,0.2-7.8,1.8c0,0-0.1,0-0.1,0
					c-2.6,0.2-4.4,1.5-5.7,3.8c-1.2,2.2-1.6,4.3-0.1,6.5c0.4,0.6,0.6,1.1,0,1.8c-0.3,0.4-0.5,1-0.5,1.5c0,0.8,0.3,1.5,0.5,2.3
					c-1.3,0.8-2.7,1.5-3.2,3.2c-0.2,0.9-0.4,1.8-0.6,2.7c-0.2,1.6,0.1,3.1,1.1,4.4c0.8,1,1.4,2,0.6,3.3c-0.3,0.5-0.6,0.9-0.8,1.4
					c-0.3,0.6-0.9,1.3-0.9,1.9c-0.1,2.2,1.2,4,2.9,5.3c1.9,1.4,3.1,0.9,4.6-1c0.3-0.4,1-0.9,1.4-0.8c2.1,0.6,4.2,0,5.2-1.9
					c0.7-1.3,1.3-2.7,2-4c0.4-0.8,0.8-1.6,1.6-1.3c1.7,3.5,3.1,6.8,4.8,10c1.2,2.3,2.4,4.6,3.9,6.7c1.3,1.9,2.7,3.6,4.2,5.3
					c1.5,1.7,3.2,3.2,4.7,4.8c0.2,0.2,0.4,0.5,0.5,0.8c0.5,1.7,1.3,3.3,3,4.1c2,0.9,4,1.6,6.1,2.1c3.5,0.9,7.1,1.4,10.7,1.2
					c1.8-0.1,3.6-0.1,5.5-0.1c1.2,0,2.4,0,3.6-0.2c0.8-0.1,1.2,0,1.8,0.6c2,1.9,3.9,3.7,6,5.4c0.9,0.7,2.2,1.1,3.3,0.4
					c1.1-0.6,2.1-1.4,2.9-2.4c1.8-2,1.5-4.8,2.2-7.2c0.1-0.5,0.3-1.1,0.7-1.4c1.4-1.4,4.1-0.7,5.2,0.1c1.2,0.9,2.3,1.8,3.4,2.8
					c1.1,1,2.8,1,3.8-0.1c1.2-1.3,2.4-2.7,3.4-4.2c0.5-0.7,1-0.8,1.7-0.5c1.3,0.5,2.6,0.8,3.8,1.5c1.5,0.9,4.4-0.3,5-1.8
					c0.5-1.3,1.3-2.6,1.8-3.6c1.5,0,2.7,0.2,3.9-0.1c0.6-0.1,1-1,1.6-1.5c1.6-1.2,3.2-2.3,4.8-3.4c0.3-0.3,0.9-0.6,0.9-0.9
					c0.2-1.2-1.4-3.5-2.9-2.9c-1.5,0.5-3,1-4.4,1.6c-1.3,0.5-1.8,0.3-2-1c-0.1-0.5-0.1-1.2-0.4-1.5c-1.4-1.3-1.6-3-1.9-4.7
					c-0.3-1.7-0.9-2.5-2.3-2.6c-1.2-0.2-3.2,1.2-3.7,2.6c-0.6,1.8-2.1,2.4-3.7,1.5c-0.3-0.2-0.9-0.3-1.2-0.1
					c-0.8,0.5-1.6,1.1-2.1,1.8c-0.8,1-1.4,2.2-2.1,3.3c-0.4,0.1-1,0.1-1.9,0.2c0.8-1.1,1.6-1.9,2.1-2.8c1.7-3,3.3-6.2,5.2-9.1
					c1.6-2.6,2.9-5.4,3.8-8.3c1-2.8,1.4-5.8,2.1-8.8c0-0.2,0.1-0.5,0-0.7c-0.6-0.9-0.1-1.9-0.1-2.8c0-0.9,0.4-1.3,1.4-1.3
					c1.5,0.1,2.7-0.6,3.7-1.8c0.6-0.7,0.4-1.2-0.1-1.6c-1.7-1.3-3.3-2.6-5.7-1.6c-0.1-0.7,0.1-1.3-0.2-1.6c-0.8-1.2-0.7-2.9-2.2-3.7
					c-0.2-0.1-0.2-0.5-0.2-0.8c0.1-1,0.5-2.1-0.9-2.6c-0.1,0-0.1-0.3-0.2-0.4c-0.4-0.7-0.9-1.4-1.4-2.3c0-0.5-0.1-1.2-0.1-1.9
					c0-0.5,0.1-1.3,0.4-1.5c1.3-0.7,2.8-0.4,4.2,0c0.1,0,0.2,0.2,0.3,0.3c1,1.1,1.7,1.2,2.9,0.3c0.8-0.6,1.5-1.4,2.3-2.1
					c1.4-1.3,1.6-2.8,0.6-4.3c-0.6-0.8-0.2-1.4,0.4-2c0.4-0.4,1-0.5,1.4-0.9c1.1-1.1,2.1-2.2,3.1-3.3c1.1-1.2,2-2.5,3.2-3.5
					c0.8-0.7,1.1-1.4,1.2-2.4c0-0.3,0-0.7,0.1-1c0.4-1.5,0.9-3,1.3-4.4c0-0.1-0.1-0.3-0.1-0.4c-0.3-1-0.9-1.3-2.4-0.9
					c-2.1,0.5-3.8,1.8-5.5,3.1c-1.1,0.9-1.7,1.7-1.9,3.2c-0.1,0.8-0.8,1.8-1.5,2.1c-0.9,0.3-2.2,0.6-3-0.6c-0.3-0.4-0.9-0.7-1.4-0.7
					c-1.7-0.2-3.3,0-4.6,1.4c-0.3-1.6-1.5-2.8-0.6-4.5c0.1-0.2,0-0.6,0-0.9c-0.1-0.8-0.6-0.9-1.3-0.8c-1.2,0.2-3,2.1-2.9,3.3
					c0.1,1.2-0.9,1.6-1.3,2.3c0.2-0.9,0.5-1.8,0.8-2.7c0.3-0.9,0.6-1.7,0.6-2.6c0.1-1.3-1.4-2.2-3-1.8c-1.3,0.3-1.7,0-1.9-1.3
					c-0.1-0.3-0.1-0.7-0.2-1c-0.3-1.3-0.8-1.5-2-1c-2.8,1.2-3.8,3.2-3.5,6.3c0.2,1.8,0.1,3.6-1.6,4.8c-0.6,0.5-1.2,1.1-1.7,1.8
					c-0.5,0.8-1.1,1.7-1.2,2.6c-0.1,0.9,0.4,1.8,0.5,2.7c0.1,0.4,0,1-0.3,1.3c-1.4,1.4-1.2,3.1-1.2,4.7c0,0.7,0,1.4,0.4,1.9
					c1.1,1.5,0.7,3.1,0.2,4.5c-0.9,2.3-2.1,4.5-3.1,6.8c-0.3,0.6-0.5,1.2-0.9,2c-0.3-0.4-0.6-0.6-0.7-0.9c-0.5-1.6-1.1-3.2-1.5-4.8
					c-0.5-2.4-1.7-3.7-4.1-4.2c-0.4-0.1-0.7-0.3-1-0.4c-0.4-0.1-1-0.4-1.3-0.2c-1.5,0.8-2.2-0.3-2.7-1.3c-0.9-1.6-1.9-2.6-3.9-2.3
					c-1.7,0.2-1.7,0.1-2,1.8c0,0.1,0,0.1-0.1,0.2c-0.1,1.7-0.3,3.5-0.2,5.2c0.1,0.8,0.2,1.4-0.7,1.7c-1.1-1.2-1.8-1.2-3.3-0.4
					C62.8,62.6,62.1,63.9,61.4,62.4c1.9-0.5,3.6-1,5.4-1.6c-1.6-0.5-3,0.1-4.4,0.6C62,61.6,61.7,62.1,61.4,62.4 M88.9,3.2
					c0.5-0.1,1-0.3,1.4-0.1c7.1,2,13.9,4.7,20,8.8c4,2.7,7.8,5.9,11.4,9.2c3.7,3.4,6.7,7.4,9.6,11.5c0.8,1.1,1.6,2.2,2.2,3.4
					c1.7,3.4,3.5,6.8,5,10.3c1.1,2.5,2,5.2,2.6,7.9c0.9,4,1.4,8.1,2,12.2c0.3,1.7,0.5,3.5,0.4,5.3c-0.2,4-0.3,8.1-0.9,12.1
					c-0.7,4.3-1.8,8.5-3.3,12.6c-2.4,6.8-5.7,13.3-10.1,19c-2.7,3.5-5.7,6.7-8.8,9.8c-4,3.9-8.6,7-13.3,9.7
					c-2.1,1.2-4.4,2.3-6.7,3.3c-2.6,1.1-5.3,2.1-8,3c-2.7,0.8-5.4,1.5-8.2,1.9c-3.1,0.5-6.2,0.9-9.3,1c-3.5,0.1-7,0.1-10.5-0.3
					c-4.3-0.6-8.7-1.2-12.9-2.6c-4.9-1.6-9.6-3.7-14.2-5.9c-4.7-2.2-8.6-5.7-12.7-8.9c-1.3-1.1-2.6-2.3-3.7-3.6
					c-2.8-3.3-5.6-6.7-8.2-10.1c-2.4-3.1-4.3-6.5-5.8-10c-1.5-3.5-2.6-7.1-3.9-10.7C1.3,87.6,0.8,83,0.3,78.5
					C0,75-0.1,71.5,0.2,68.1c0.3-4.2,0.9-8.5,1.9-12.6c1.4-5.5,3.1-11,5.9-16c3.1-5.7,6.7-11.1,11.1-15.8c3.3-3.6,6.9-6.9,11-9.7
					c3-2.1,6.4-3.8,9.5-5.7c3.6-2.2,7.6-3.4,11.5-4.7c2.7-0.9,5.4-1.5,8.2-2c6.6-1,13.3-1.4,20-0.7c2.9,0.3,5.8,1,8.6,1.5
					C88.3,2.5,88.6,3,88.9,3.2"/>
			</g>
			<path id="Fill-4" d="M52.6,141c0.2-0.1,0.4-0.2,0.6-0.3c-0.5-0.8-1-1.7-1.5-2.5c-3.4-4.8-5.7-10.1-6.9-15.9
				c-0.1-0.5-0.5-1.2-0.8-1.3c-0.5,0-1,0.4-1.4,0.6c0.8,2,1.9,3.6,2.2,5.4C45.5,132.8,49.4,136.7,52.6,141 M190.5,102.7
				c-0.6,2.5-1.1,4.4-1.5,6.3c-1.2,7.2-4.4,13.7-8.4,19.4c-2.4,3.3-4.3,6.8-6.4,10.3c-1,1.7-1.4,3.8-2.4,5.5
				c-2.4,4.3-4.7,8.8-9.3,11.4c-1.1,0.6-2.2,2.2-2.4,3.5c-0.6,3.9-3.4,5-6.6,5.9c-0.6,0.2-1.2,0.3-1.7,0.6c-2.8,1.6-5.9,2.4-8.9,3.5
				c-0.4,0.2-1.2,0.1-1.5-0.2c-2.4-2.5-5.8-2.6-8.8-3.3c-2.3-0.5-4.7-1-7-0.7c-3.4,0.4-7,0.8-9.1,4.2c-0.3,0.5-0.7,1-0.7,1.6
				c-0.2,1.8-0.3,3.6-0.4,5.4c-3.8,0.5-7.6,1-11.3,1.3c-1.5,0.1-3,0-4.5-0.1c-5.6-0.4-11.3-0.1-16.8-1.7c-3.3-1-6.6-2-10-3
				c-1.3-0.4-2.8-0.4-3.9-1.2c-1.8-1.1-3.7-2.2-5.2-3.5c-2.9-2.3-5.4-5.2-7.8-8.1c-2.8-3.4-5.6-6.9-8-10.7c-3.1-4.9-6.1-9.9-8.7-15
				c-2-4-3.4-8.2-5-12.7c3.8,2,4.8-1.5,6.5-3.1c1.8-1.6,3.3-1.9,5.5-1.7c5.1,0.6,8.9-2,11.8-5.8c0.8-1,0.6-2.9,0.8-4.4
				c0.2-2.2,0.8-2.7,2.7-1.6c2.8,1.7,5.8,2.2,9.1,2.3c3.3,0.1,6.5,0.8,9.8,1.1c2.1,0.2,4.3,0.1,6.4,0c4.6-0.1,9.2-0.1,13.7-0.4
				c7.2-0.4,14.4-0.9,21.6-1.4c4.1-0.3,8.1-0.3,12.2-0.8c3.1-0.4,6.1-1.5,9.2-1.9c5.9-0.6,11.7-1.9,17.5-3.1
				c4.3-0.9,8.6-1.7,12.9-2.4c1.4-0.3,2.8-0.4,4.4-0.6C181.6,100.5,184.2,105.2,190.5,102.7"/>
			<path id="Fill-6" d="M64.5,94.4c0.1-0.2,0.2-0.4,0.4-0.6C63.9,93.2,63,92.5,62,92c-3.3-1.5-6.4-3.6-10.1-3.8
				c-1.7-0.1-3.5-0.1-5.2,0.1c-1.6,0.2-3.4,0.6-4.6,1.5c-2,1.5-3.5,3.5-5.4,5.1c-0.7,0.6-1.8,1.1-2.6,1.1c-3.3,0-6.6-0.3-9.9-0.4
				c0,0.3,0,0.6,0,0.9h9.5c0,0.2,0.1,0.4,0.1,0.6c-0.6,0.4-1.1,1-1.8,1.3c-1.7,0.7-3.6,1-5.2,1.9c-5.7,3-10.1,7.3-12,13.7
				c-0.1,0.5,0,1.1,0,1.9c3.4-5.1,6.7-9.7,11.6-12.7c0.8-0.5,1.7-0.6,2.5-0.9c1.2-0.4,2.7-0.6,3.7-1.3c2.4-1.8,5.6-2.8,7.1-5.9
				c0.3-0.5,1-0.8,1.9-1.5c-0.4,1.7-0.6,3-0.9,4.3c-0.2,1.3-0.4,2.5-0.6,3.8c0.2,0,0.5,0.1,0.7,0.1c0.5-2.4,1.1-4.8,1.5-7.3
				c0.3-1.8,1.1-2.9,2.8-3.2c2.2-0.4,4.4-0.8,6.7-1c1.4-0.1,2.8-0.1,4.1,0.3c2,0.6,3.8,1.6,5.7,2.4C62.6,93.6,63.5,94,64.5,94.4
				 M74.2,105.2c-2.1-0.3-3.8-0.5-5.6-0.9c-2.1-0.5-4.3-1-6.1-2c-4.3-2.4-7-1.2-7.1,3.8c0,2.7-0.4,4.9-2.8,6.5
				c-2.2,1.4-4.6,2.2-7.1,1.7c-3.9-0.7-6.4,1.6-8.7,3.9c-1.4,1.4-2.2,1-3.4-0.1c-0.4-0.4-1.3-0.5-2-0.6c-0.4,0-0.8,0.4-1.2,0.4
				c-4.1,0.2-5.1,3-6.2,6.4c-0.8,2.6-2.4,5.2-4.3,7.2c-0.9,0.9-3.3,0.9-4.9,0.6c-2.5-0.5-4.1,0.1-5.5,2.2c-2.4,3.5-3.5,3.6-6.5,0.3
				c-0.9-1-1.6-2.4-2.2-3.6c-0.9-1.8-0.3-3.3,0.8-4.9c1.2-1.8,1.8-4,2.8-6c0.8-1.6,0.2-2.6-0.9-3.7c-4.2-3.9-4.3-8.1-2.4-12.5
				c1.2-2.7,2.7-5.3,6.8-5c2.9,0.3,6.8-2.4,7.7-6.2c0.7-3,2.2-5.8,3.6-8.5c1.6-2.9,4.5-3.9,7.6-4.1c1-0.1,2.1,0.6,3.1,1.1
				c4.5,2.4,8.7,2,13-0.5c3.4-2,9.1-0.3,11.2,3.1c1.7,2.9,4.1,3.8,7.3,2.8c4.3-1.3,7,0.3,8.5,4.2c0.8,2.1,0.5,4.5,1,6.7
				c0.3,1.5,1,2.9,1.6,4.3C73.1,103,73.7,104.1,74.2,105.2"/>
			<path id="Fill-8" d="M180,48.5c-0.2-0.2-0.4-0.5-0.6-0.7c-2.2,2.1-4.3,4.2-6.5,6.2l0.6,0.6C175.6,52.6,177.8,50.5,180,48.5
				 M220.7,9c-0.2,1.8-0.3,3-0.5,4.2c-0.4,2.1-0.5,4.4-1.5,6.3c-0.9,1.7-2.7,2.8-4.1,4.3c-1.1,1.2-2.3,2.3-3.1,3.6
				c-1.4,2.6-3.3,4.5-5.7,6.1c-2,1.3-4.1,2.9-4.7,5.4c-0.2,1-0.1,2.4,0.5,3.1c1.1,1.6,1.5,2.8,0.3,4.5c-1.7,2.3-3.5,4.5-6.3,5.5
				c-0.4,0.2-1.2,0-1.6-0.3c-3.1-2.9-9.2-2.6-11.7,0.2c-0.6,0.7-0.8,2.1-0.6,3c0.6,2.3,0.1,3.4-1.9,4.5c-3.1,1.7-6.6,1.7-9.9,2
				c-1.6,0.1-3,0.2-3.2,2.4c0,0.5-1.3,0.9-1.8,1.5c-2,2.1-4,4.3-6.2,6.7c0.9-1.7,1.8-3.2,2.6-4.7c0.8-1.5,1.7-3,2.5-4.6
				c0.2-0.4,0-1.1,0-1.6l-0.6-0.2c-1.1,1.5-2.1,3.1-3.3,4.5c-1,1.1-2.3,2-3.1,3.2c-1.4,1.9-2.7,4-4,6.1c-3,5.2-6,10.3-8.9,15.5
				c-1.6,2.8-2.9,5.7-4.4,8.5c-0.7,1.3-1.3,2.5-2,3.7l-0.5-0.2c0.6-1.8,1-3.6,1.8-5.3c1.3-2.9,2.7-5.7,4.2-8.5
				c1.3-2.4,2.8-4.6,4.2-6.9c1.8-3.1,2.9-6.5,4.4-9.8c1.8-4,4.3-7.8,6.6-11.6c0.3-0.6,1-1.1,1.6-1.3c3.7-1.3,4.7-4.5,6-7.7
				c1.1-2.8,2.6-5.5,4.2-8.1c2-3.2,3.5-6.4,2.3-10.7c2.2-0.2,4.3-0.3,6.3-0.5c2-0.1,3.1-1.3,3.8-3.1c0.6-1.5,1-3.4,2.1-4.3
				c2.6-2,5.7-3.5,9.1-3c1,0.2,2.1,0.8,2.9,1.5c1.5,1.3,3,1.6,4.8,1c4.7-1.6,5.9-3.1,5.9-7.9c0-2.1,1.8-2.7,3-3.4
				c2.2-1.5,4.7-2.5,7.2-3.5C218.5,9,219.7,9.1,220.7,9"/>
			<path id="Fill-10" d="M145.7,64.5c0.8,0.5,1.4,0.8,1.9,1.2c0.9-4.1,2-7.8,2.5-11.6c0.2-1.5-0.5-3.3-1.2-4.7
				c-1.3-2.8-1.2-7.8,0.9-10c1.8-1.8,1.3-3.7,0.6-5.5c-1.2-3.1-1-6.8,1.8-9.1c1-0.8,1.9-1.7,2.8-2.5c2.6-2.4,3.2-5.5,2.7-8.9
				c-0.8-4.8,1-8.6,5.3-10.4c0.5-0.2,1.4,0.4,2.1,0.7c0.3,0.2,0.3,0.8,0.4,1.2c0.8,5.9,1.9,4.6,6.3,4.7c2.1,0,3.3,1.5,2.5,3.5
				c-1.8,4.5-3.8,8.9-3.9,13.9c0,1.5-0.5,3-0.9,4.5c-0.4,1.4-0.7,2.6,0.2,4.1c0.9,1.6-0.2,3.4-1.3,4.9c-1.2,1.6-2.4,3.3-3.2,5.1
				c-1.4,3-1.7,6.6-4.3,9.1c-0.4,0.4-0.8,1-1.2,1.1c-3.2,0.6-3.9,3.5-5.3,5.7c-1.7,2.8-3.5,5.5-5.2,8.3c-1.2,2-2.8,3.7-2.2,6.5
				c0.2,1-0.8,2.3-1.4,3.3c-2.3,4-4.8,7.9-7,12c-1.6,2.9-2.9,6-4.3,9c-0.7,1.7-0.7,1.7-3.2,1.8c0.8-3.2,1.5-6.5,2.5-9.8
				c0.5-1.7,1.3-3.2,2-4.8c1.7-3.7,3.5-7.4,5.2-11.2c1.6-3.8,3.1-7.7,4.6-11.5C145.4,65,145.6,64.7,145.7,64.5"/>
			<path id="Fill-12" d="M57.7,66.5c-1.2,0.1-2.3,0.2-3.6,0.3c-0.2-4.9-3.4-6.5-7.5-7.6c-1.8-0.5-3.6-1.5-5.1-2.6
				c-0.9-0.7-1.5-2.2-1.6-3.4c-0.3-2.2,0-4.4-0.1-6.6c-0.1-3.4-2.6-5.2-4.6-7.4c-0.6-0.7-1.3-1.4-1.8-2.2c-0.9-1.5-0.6-2.8,0.6-4.1
				c1-1.1,1.7-2.5,2.1-3.9c0.3-0.8,0.1-2-0.3-2.7c-0.9-1.5-1.9-3-3.2-4.1c-3.5-3.2-2.9-7.8-1.5-10.9c1-2.3,1.2-4.3,0.8-6.6
				c-0.5-2.8,1.7-5.3,3.7-4.1c1.3,0.7,2.4,2.1,3,3.5c1,2.3,1.4,4.8,2.1,7.1c0.5,1.8,1.7,2.4,3.3,1.4c1.7-1,3.2-2.3,4.8-3.6
				c3.8,2,4.8,5.7,4,9.9c-0.3,1.7-0.6,3.3-1,4.9c-0.8,3.3,1.5,5.3,2.9,7.7c0.2,0.3,1.1,0.3,1.7,0.3c3.1,0,4.3,1.4,4.2,4.5
				c-0.1,2.6,0.1,5.1,0,7.7c0,1.1-0.6,2.1-0.8,3.2c-1.1,6.3-1.7,12.6,1.1,18.7c0.1,0.3,0.1,0.6-0.2,1.1c-2.4-7.8-4.8-15.6-7.2-23.5
				l-1,0.3c0.6,1.8,1.1,3.6,1.7,5.4c0.6,1.9,1.1,3.8,1.4,5.9c-2.1-4.4-4.2-8.9-6.3-13.3c-0.2,0.1-0.4,0.2-0.6,0.2
				C51.1,50.2,54.4,58.3,57.7,66.5"/>
			<path id="Fill-14" d="M169.3,167c1.1-0.2,2.2-0.4,3.3-0.6c3-0.5,5.9-1.7,8.8-1.5c4.2,0.2,7.3-1.7,10.4-3.9c-1,0-2,0.2-2.9,0.5
				c-1,0.4-1.9,1.1-2.9,1.2c-5.4,0.6-10.7,1-16,1.4c0.7-1,1.6-2.4,2.8-4.1c-2.7,0.6-3.8,2.4-5.2,4.1c-0.9,1.1-2,2.3-3.2,2.7
				c-2,0.7-3.3,1.8-4.7,3.9c4.2-0.6,7.3-4.3,11.4-1.8c0-0.2,0.1-0.4,0.1-0.7C170.6,167.9,170,167.5,169.3,167 M148,174.5
				c0.3-0.4,0.5-0.9,0.9-1.1c2.6-1.3,5-2.7,6.8-5.1c0.7-1,1.9-1.7,2.9-2.4c2-1.3,3.7-2.8,4.3-5.4c0.9-3.9,4-5.4,7.4-6.6
				c2.2-0.8,4.6-1.3,6.9-0.4c1.3,0.5,2.6,1.2,3.5,2.1c1.6,1.6,3.1,1.3,4.4,0.1c1.1-1,2-2.4,2.7-3.8c1.8-4.1,3.9-5.3,9-4.6
				c0.8,0.1,1.7,0.3,2.5,0.5c3.7,0.9,4.2,1.5,4.6,5.4c0.3,2.4,3.3,3.3,6.3,2c2.3-1.1,4.6-2.1,7-2.9c2.2-0.7,3.5,0.3,3.5,2.5
				c-4.2,1.4-6.9,4.8-9.9,7.7c-1.7,1.7-3.6,2.4-5.8,1.4c-1.9-0.8-3.4-0.5-4.4,1.3c-1.2,2.1-2.4,4.2-3.4,6.3c-1,2.2-4,3.4-6.4,2.6
				c-2.9-1-5.8-2-8.7-2.9c-1.6-0.5-2.9-0.2-4,1.3c-1.7,2.4-3.5,4.6-5.3,6.9c-1.4,1.8-3,2.2-5,1.1c-1-0.6-2.1-1.2-2.9-2.1
				c-2.2-2.6-5-4.5-8.3-5c-2.8-0.5-5.7-0.2-8,2C148.4,174.9,148.2,174.7,148,174.5"/>
			<path id="Fill-16" d="M41.7,75.8c0.4,0.5,0.9,1,1.3,1.5c-1.5,2-5.7,3.3-8.5,2.5c-1.6-0.4-3.3-0.9-4.7-1.6
				c-3.1-1.6-8.2,0.5-10,2.6c-2.7,3-4.7,6.3-5,10.4c-0.2,1.9-3.4,5-5.2,5.2C7.8,96.5,6.6,94,7.4,92c0.5-1.2,1.2-2.4,1.2-3.7
				c0-1.2-0.5-2.6-1.1-3.7c-2-3.2-1.9-4.8-0.1-8.2c2-3.7,4.7-6.2,8.7-7.1c4.2-0.9,8.2-2.7,12.6-2.2c1.3,0.1,2.9-0.5,4.1-1.2
				c2.8-1.5,5-1.3,7,1.1c4.1,4.7,8.5,5.3,14.2,2.9c2-0.8,4.5-0.4,6.7-0.5c0.4,0,1.1,0.5,1.2,0.8c0.3,3,3.1,5.5,1.7,8.8
				c-0.3,0.8-0.2,1.7-0.6,2.4c-0.4,0.8-1,1.7-1.8,2.2c-1.2,0.7-2.7,0.7-3.6-0.6c-2.7-4.1-6.6-5.4-11.2-5.7c-1.6-0.1-3.1-1.2-4.6-1.9
				C41.9,75.6,41.8,75.7,41.7,75.8"/>
			<path id="Fill-18" d="M96.6,90.3c-1,0.9-1.6,1.3-2,1.9c-0.6,0.9-3.9,2.1-5,1.5c-3.2-1.7-6.4-2.2-9.8-0.7c-0.2,0.1-0.6,0-0.8,0.1
				c-0.2,0-0.4,0.1-0.7,0.8c0.6,0.1,1.2,0.4,1.7,0.3c2.8-0.7,5.5-0.5,8,1.1c0.5,0.3,1.3,0.4,1.8,0.3c4.1-1.4,7.7,0.3,11.4,1.7
				c0.4,0.2,0.9,0.4,1,0.8c0.8,2.6,2.7,2.4,4.7,2.1c2.8-0.4,4.6,1.3,6.4,2.9c1.1,0.9,0.4,2.2-1.2,2.4c-3.9,0.3-7.9,0.6-11.8,0.8
				c-4,0.2-8.1,0.3-12.1,0.3c-0.9,0-2-0.6-2.5-1.3c-3-4.2-5.9-8.4-8.8-12.7c-1.5-2.2-3-4.5-4.5-6.8c-1.4-2.1-1.7-4.3-0.9-6.6
				c0.3-0.8,1.2-1.7,2-2c0.4-0.1,1.6,0.9,1.8,1.6c0.7,1.9,1.9,2.4,3.9,2.9c2.8,0.8,6.2,2,7.3,5.1c0.7,1.9,0.8,4,2.5,5.5
				c0.5,0.4,1.1,0.7,2,0.7c-1-2.4-2.1-4.8-3.1-7.2c0.4-0.3,0.9-0.7,1.3-1c0.3,0.8,0.7,1.6,1.1,2.6c2.6-1.8,5.6-2.8,6.9-6.1
				c0.7-1.8,1.9-3.8,4.8-3.5c0.8-4.5,3.2-7.9,7.1-10.7c0.9,1.8,1.9,3.8,2.8,5.9c0.1,0.2-0.1,0.8-0.4,0.9c-2.2,1-3,3.2-4.3,5
				c-1.6,2.1-3.8,3.7-5.5,5.6C99.7,86.5,98,88.7,96.6,90.3"/>
			<path id="Fill-20" d="M123.1,70.4c-0.1,0.1-0.2,0.2-0.3,0.4c4.3,3.3,8.6,6.6,12.9,9.9c0.9-1.3,0.9-2.9-0.3-4.5
				c-1.2-1.6-2.4-3.3-3.7-4.8c-2.6-3.1-5.2-6.3-8.1-9.2c-1.5-1.5-3.8-2.4-5.7-3.5c2.6,2.6,5.5,4.8,7.8,7.4c2.3,2.6,4.1,5.8,6.1,8.8
				c-0.1,0.1-0.2,0.2-0.4,0.3C128.8,73.5,126,71.9,123.1,70.4 M139.3,75.3c-1.3,2.4-2.6,4.9-3.8,7.1c-1.7-0.5-3.5-1.1-5.2-1.6
				c-0.4-0.1-0.9-0.3-1-0.5c-1-3.4-3.9-3.7-6.7-4.4c-2.8-0.6-5-1.4-7-4.1c-1.6-2.2-3.4-4.2-4.2-6.8c-0.2-0.6-0.1-1.2-0.1-1.8
				c0-0.5,0.1-1.2-0.1-1.5c-1.8-1.9-0.9-4.2-0.9-6.3c0-0.8,0.2-1.7,0.4-2.5c0.2-1.2-0.1-2.7,1.8-2.7c1.8-0.1,3.6-0.5,4.7,1.6
				c0.7,1.4,1.5,2.7,2.6,3.8c1.3,1.3,2.7,2.2,4.8,1.5c1-0.3,2.2,0.2,3.4,0.5c1.3,0.3,3.1,0.3,3.9,1.1c1.1,1.1,1.6,2.9,2.2,4.4
				c0.5,1.2,0.8,2.5,1.3,3.7c0.4,1.2,0.8,2.5,1.3,3.7c0.6,1.6,1.3,3.2,2.1,4.8C138.7,75.3,139.2,75.3,139.3,75.3"/>
			<path id="Fill-22" d="M126.2,95.9c-4.4-3.1-8.7-6.2-13.4-9.5c0.5-2.4,2.2-4.4,4.3-6.2c0.3-0.3,1.2-0.2,1.5,0
				c1.4,1.1,3.4,1.2,4.4,3.2c0.8,1.6,3.2,2,4.8,0.9c2.3-1.5,4,0.1,5.7,0.2c-1,4.2-1.9,8.2-2.9,12.2c-0.4,1.5-1,3-1.8,4.4
				c-0.5,1-1.1,1.8-2.7,1.8c-2.8-0.1-5.6,0.3-8.4,0.5c-1,0.1-1.9,0.2-2.4-0.3c-0.9-1.2-1.6-2.7-2.8-3.7c-1.2-1.1-2.8-1.8-4.3-2.5
				c-0.7-0.3-1.8-0.7-2.2-0.4c-2,1.5-2.9,0-4.2-1.1c-1.4-1.1-3.1-1.9-5-3c1.7-2.4,3.1-5,5.1-7c0.5-0.5,2.8,0,3.9,0.7
				c4.7,2.6,9.3,5.3,13.9,8.1c1.9,1.2,3.7,2.2,5.9,2.3C126,96.3,126.1,96.1,126.2,95.9"/>
			<path id="Fill-24" d="M175.7,96.2c-10,1.8-19.6,3.6-29.7,5.4c0.3-1.1,0.5-2.1,0.9-3c1.5-3.1,2.9-6.1,4.6-9.1
				c0.5-0.9,1.4-1.7,2.4-2.1c2.2-0.9,4.4-1.9,6.7-2.2c3.3-0.3,6.5-0.7,9.6,1.8C172.9,89.5,174.5,92.3,175.7,96.2"/>
			<path id="Fill-26" d="M142.1,192c-3.7-5.6-7-10.5-10.4-15.4c-2.4-3.5-5.1-6.6-9.8-8.1c3-1.8,5.8-1.6,8.5-1.2
				c1.6,0.3,3.2,0.8,4.8,1.4c6.6,2.4,12.5,8.7,9,16.7C143.4,187.4,142.9,189.6,142.1,192"/>
			<path id="Fill-28" d="M122.2,176.9c-0.9-0.7-1.9-1-2-1.5c-0.3-1.4-0.2-2.9-0.2-4.4c1.2,0.2,2.6,0,3.5,0.6c2.7,1.9,5.2,4.1,7,7
				c2.3,3.9,5.2,7.4,7.6,11.2c0.8,1.3,1,3.2,0.8,4.7c-0.1,1.4-1.6,1.6-2.6,0.8c-2.5-1.8-4.9-3.7-7.2-5.6c-2.9-2.4-4.7-5.6-6.6-8.7
				C121.6,179.5,120.8,178.3,122.2,176.9"/>
			<path id="Fill-30" d="M175.7,78.7c-0.3-0.2-0.6-0.4-0.9-0.6c0.2-1.2,0.5-2.4,0.7-3.6c0.2-1,0.3-2,0.5-3.1
				c-2.3,3.9-2,8.8-6.1,11.6c2.4,1.2,2.4,1.2,3.8-0.9c0.4-0.6,1-1.1,1.5-1.7c1.3-1.6,2.5-3.1,3.7-4.7c-0.2-0.2-0.4-0.4-0.7-0.6
				C177.4,76.4,176.6,77.6,175.7,78.7 M172.4,86.4c-0.8-0.7-1.6-1.4-2.3-2.1c-0.7-0.6-1.4-1.3-2.1-1.9c1.1-1.8,2.5-3.6,3.1-5.6
				c0.7-2,0.6-4.3,0.9-6.5c0.7,0,1.2-0.1,1.6,0c3.8,0.6,5.9-1.8,4.8-5.6c-0.3-1.1-0.7-2.2-1.1-3.5c1.6-0.1,2.9-0.3,4.2-0.1
				c1.1,0.1,2.4,0.2,2.6,1.9c0.1,0.7,0.9,1.4,1.4,2c1.1,1.4,0.9,2.9-0.5,4c-2.5,1.9-2.7,2.6-1.8,5.5c0.5,1.4-0.5,4.3-1.8,5.2
				c-2.4,1.6-4.9,3.1-7.3,4.8C173.5,84.9,173.1,85.6,172.4,86.4"/>
			<path id="Fill-32" d="M164.6,74.4c-0.2-0.1-0.4-0.2-0.6-0.3c-1.4,2-2.8,4-4.2,6.1c-0.1,0.2,0.2,0.7,0.3,1.1
				c0.4-0.1,0.9-0.1,1.1-0.3C162.3,78.7,163.4,76.5,164.6,74.4 M153,83.7c1.6-2.5,3.2-4.9,4.9-7.4c0.8-1.1,1.5-2.3,2.3-3.4
				c0.2-0.3,0.4-0.7,0.7-1c2.7-2.6,5.4-5.2,8.2-7.7c1.8-1.6,4.1-1.4,6.2-1c1.8,0.4,1,2.4,1.1,3.7c0.1,1.3-0.7,2.1-2,2.1
				c-0.6,0-1.2-0.3-1.7-0.1c-1,0.4-2.4,0.9-2.6,1.6c-0.6,1.9-0.7,4-1,6c-0.1,0.7-0.1,1.5-0.5,2c-0.9,1-2.2,1.7-3.1,2.6
				c-1.1,1.1-2.2,1.1-3.7,0.9c-1.5-0.1-3.1,0.5-4.6,0.8c-1.2,0.3-2.5,0.7-3.7,1.1C153.4,84.1,153.2,83.9,153,83.7"/>
			<path id="Fill-34" d="M117.1,178.5c0.7,1.4,1.3,2.7,2.2,4.6c-4,0-7.5,0-11,0c-1,0-2.1-0.1-3.1,0c-5.9,0.6-11.8,0.5-17.6-1.1
				c-4.5-1.2-9-2.3-13.5-3.7c-2.4-0.7-4.5-2-5.1-5.3C84.6,179.2,100.6,180.9,117.1,178.5"/>
			<path id="Fill-36" d="M192.7,93.9c-0.9-0.6-1.5-0.9-2-1.5c-1.7-1.9-4.1-1.9-5.6,0.1c0.1,0.1,0.1,0.4,0.2,0.4
				c2.3,0.1,4,1.2,5.6,2.8c1,1,1.9,1.5,0.8,2.8c-0.8,0.9-1.7,2.2-2.7,2.4c-0.9,0.2-2.1-1-3-1.7c-1.8-1.4-3.6-2.8-5.4-4.3
				c-0.7-0.6-1.4-1.3-2.5-2.3c2.5-1.5,4.7-2.8,6.8-4.2c1.8-1.2,3.7-2.5,5.3-3.9c2.9-2.7,9.6-3.7,12.6-0.4c-0.5,1.4-1.4,2.2-3.1,2.3
				c-1.7,0.1-3.5,0.4-5.2,0.9c-0.6,0.1-1.3,0.8-1.4,1.3C192.8,90,192.8,91.6,192.7,93.9"/>
			<path id="Fill-38" d="M94.4,76.7c-1.5-3.8-8.4-6.5-11-4.4C87.4,72.9,90.8,74.3,94.4,76.7 M97.4,77.1c-1.4,1.7-2.6,3.7-4.3,5.2
				c-1.8,1.7-3.3,1.4-5.4-0.1c-1.7-1.2-3.5-2.3-5.4-3.4c-2-1.1-3.9-5-3.3-7.2c0.4-1.6,4.5-3.3,6.5-2.5C90,71,94.4,72.8,97.4,77.1"/>
			<path id="Fill-40" d="M176,151.8c0.1-4.3,4.9-7.6,9-5.8c2,0.9,3.3-0.4,4.4-1.4c1.7-1.7,3-3.9,4.6-5.7c0.6-0.6,1.8-1,2.6-0.8
				c0.6,0.1,1.2,1.2,1.5,1.9c0.5,1.6,0.8,3.3,1.3,5c0.4,1.3,0,1.9-1.4,1.8c-2.1-0.2-4.2-0.3-6.3-0.4c-2.3-0.1-3.8,0.9-5,2.9
				c-0.9,1.7-2.1,3.3-3.1,4.9c-0.7,1-1.3,1.1-2.4,0.4C179.7,153.4,177.9,152.7,176,151.8"/>
			<path id="Fill-42" d="M182.8,13c-0.2,0.9-0.5,1.6-0.6,2.3c-0.3,2-0.6,4,0.7,5.8c0.7,1,0.6,1.8-0.4,2.7c-1,0.8-1.6,1.7-1.6,3.3
				c0,1.8-1.6,2.6-3.3,2.2c-2.2-0.5-3.9-0.4-5.1,2.1c-0.1-0.1-0.3-0.2-0.4-0.4c0.2-2.3,0.2-4.6,0.5-6.8c0.1-0.4,1-0.7,1.4-1.1
				c1.9-1.7,3.6-3.5,4-6.3C178.4,14,179.8,13,182.8,13"/>
			<path id="Fill-44" d="M80.7,103.5c-1.6-2.4-3.1-4.9-4.6-7.4c-0.3-0.5-0.5-1.1-0.6-1.6c-0.5-4.8-2.8-8.5-7.1-10.9
				c-0.3-0.2-0.6-0.3-1-0.4c-0.3-0.1-0.7-0.1-1.4-0.1c0.4-1.6,0.7-3.1,1.2-5.1c1.9,2.8,3.8,5.3,5.3,7.9c2.2,3.8,4.1,7.8,6.5,11.4
				c1.6,2.5,3.9,4.7,5.9,6.9c0.4,0.5,1.2,0.7,1.8,1.1c-0.2,0.3-0.3,0.6-0.5,0.9c-2.2-0.2-4.4-0.3-6.6-0.6c-0.4,0-0.8-0.6-1-1
				c-1-2.1-1.9-4.2-2.9-6.4c1.6,1.9,3.2,3.7,4.8,5.6C80.5,103.7,80.6,103.6,80.7,103.5"/>
			<path id="Fill-46" d="M83,65.8c2.2-2.9,4.9-3.5,7.9-2.2c1.9,0.8,4,1.4,5.9,2.3c2.7,1.3,2.8,4.1,3.6,6.5c0.1,0.3-0.3,0.9-0.6,1.1
				c-0.3,0.1-1,0-1.2-0.2c-3.5-4.2-8.3-6-13.3-7.5C84.6,65.7,83.8,65.8,83,65.8"/>
			<path id="Fill-48" d="M176,89.6c-0.1-1.6,0.5-2.5,1.9-3.5c3.3-2.2,6.8-4.4,8.7-8.2c0.4-0.8,0.2-2,0.1-3c-0.1-0.9-0.4-1.8-0.7-2.9
				c3.1,0.4,3.9,2.5,4.2,4.5c0.2,1.1-0.3,2.9-1.2,3.7c-3.1,2.5-6.4,4.7-9.6,7C178.3,87.9,177.3,88.7,176,89.6"/>
			<path id="Fill-50" d="M112.9,80.6c-0.8-0.7-2-1.5-2.8-2.5c-0.3-0.4-0.2-1.7,0.3-2.1c0.7-0.8,1.8-1.3,2.8-2c0.4,0.8,0.5,1.5,1,1.9
				c0.9,0.8,2,2,2.9,1.9c2.7-0.3,4.8,1,6.9,1.9c1.2,0.5,2.1,1.9,3.1,2.8c-0.2,0.3-0.4,0.6-0.6,1c-0.9-0.4-2.1-0.7-2.7-1.4
				c-1.8-2.1-4.5-2.7-6.8-3.7C116.1,78.2,114.3,79.9,112.9,80.6"/>
			<path id="Fill-52" d="M148.5,85.3c-0.4,1.2-1.6,2.3-0.2,3.8c0.4,0.4-0.6,2.4-1.2,3.6c-1.1,2.3-2.3,4.6-3.7,6.7
				c-0.6,0.9-1.9,1.3-2.8,1.9l-0.6-0.6c2.6-5.2,5.3-10.5,7.9-15.7C148.1,85.1,148.3,85.2,148.5,85.3"/>
			<path id="Fill-54" d="M105,82.7c1.4-1.5,2.7-3.1,4.1-4.7c0.3,0.3,0.7,0.5,1.1,0.8c2.6,2,2.8,3.9,0.4,6.2
				c-0.3,0.3-1.3,0.3-1.7,0.1C107.5,84.4,106.2,83.5,105,82.7"/>
			<path id="Fill-56" d="M104.4,66.6c-0.8,0.9-1.6,1.6-2.3,2.5c-0.6,0.8-1,1.8-1.7,3c-0.5-1.6-1-3-1.4-4.4
				C101.9,64.3,102.3,64.3,104.4,66.6"/>
			<path id="Fill-58" d="M144,170.1c3.1-1.1,5.8-2,9-3.1C149.8,170.9,147.3,171.8,144,170.1"/>
			<path id="Fill-60" d="M150,83.4c1.3-2.5,2.6-4.9,4-7.4c0.2,0.1,0.4,0.2,0.6,0.3c-1.3,2.5-2.6,4.9-4,7.4
				C150.4,83.6,150.2,83.5,150,83.4"/>
		</g>
	</g>
</g>
</svg>
