<?xml version="1.0" encoding="UTF-8"?>
<svg width="221px" height="196px" viewBox="0 0 221 196" version="1.1" xmlns="http://www.w3.org/2000/svg" xmlns:xlink="http://www.w3.org/1999/xlink">
    <!-- Generator: Sketch 42 (36781) - http://www.bohemiancoding.com/sketch -->
    <title>zero_waste_illu</title>
    <desc>Created with Sketch.</desc>
    <defs>
        <polygon id="path-1" points="143.523 0.591625945 143.523 144 0 144 0 0.591 143.523 0.591 0.000271967292 0.591625945 0.000271967292 144.000073 143.523354 144.000073 143.523354 0.591625945"></polygon>
    </defs>
    <g id="Page-1" stroke="none" stroke-width="1" fill="none" fill-rule="evenodd">
        <g id="ui_illustrations" transform="translate(0.000000, -3.000000)">
            <g id="zero_waste_illu" transform="translate(0.000000, 3.000000)">
                <g id="Group-3" transform="translate(38.000000, 39.409000)">
                    <mask id="mask-2" fill="white">
                        <use xlink:href="#path-1"></use>
                    </mask>
                    <g id="Clip-2"></g>
                    <path d="M61.3538,62.4171 C61.0008,62.2911 60.6488,62.1661 60.2308,62.0181 C61.9298,59.7701 64.4928,59.9671 66.9998,59.1291 C66.5208,58.7711 66.2788,58.4681 65.9838,58.4021 C65.6868,58.3371 65.3358,58.5781 65.0128,58.5641 C62.4098,58.4531 60.6908,60.0311 58.9668,61.6561 C56.0618,60.4451 54.5058,60.5821 51.8198,62.9611 C50.2818,64.3231 49.0848,66.1141 50.1858,68.5331 C49.4488,67.0611 48.3308,68.1121 47.5598,68.1801 C47.0828,68.2211 46.7208,69.5631 46.2658,70.3961 C46.0748,70.1851 45.8258,70.0211 45.7378,69.7941 C44.9968,67.8841 44.2358,65.9791 43.5898,64.0361 C43.3268,63.2451 43.4088,62.3451 43.2048,61.5261 C42.4258,58.3931 42.0938,55.2851 43.4228,52.2031 C43.5208,51.9781 43.5448,51.6981 43.5258,51.4491 C43.4008,49.7871 43.2118,48.1301 43.1278,46.4671 C43.0578,45.0921 42.1788,44.1921 41.2868,43.3881 C41.0088,43.1361 40.1588,43.5181 39.4828,43.6231 C38.8868,42.6931 38.1658,41.6281 38.5688,40.4041 C39.6448,37.1511 39.5078,34.1941 37.0638,31.5371 C36.0408,30.4251 35.0208,30.4281 34.2138,31.7431 C33.9988,32.0941 33.8158,32.4941 33.5168,32.7551 C33.2698,32.9711 32.8498,33.1431 32.5518,33.0871 C32.3678,33.0531 32.1688,32.5621 32.1518,32.2661 C32.0528,30.5201 31.5248,28.8981 30.3218,27.6651 C29.7138,27.0411 28.7028,26.5291 27.8518,26.4931 C26.7648,26.4451 25.8978,27.3081 25.5928,28.3771 C25.4078,29.0231 25.6238,29.7761 25.6048,30.4801 C25.5888,31.1031 25.7038,31.8561 25.4038,32.3231 C23.7908,34.8391 24.0358,38.6721 26.4918,40.8631 C28.0578,42.2611 27.9368,43.1301 26.3678,44.7091 C26.0678,45.0121 25.7278,45.5091 25.7688,45.8751 C25.9418,47.3961 26.3458,48.8151 27.6258,49.8961 C28.3608,50.5161 29.1708,51.3281 29.4008,52.1981 C29.7198,53.4071 29.5068,54.7521 29.5608,56.0371 C29.5828,56.5531 29.5308,57.2161 29.8178,57.5481 C30.5468,58.3901 31.3468,59.2701 32.3058,59.7901 C33.7588,60.5791 35.3848,61.0411 36.9078,61.7101 C37.6638,62.0411 37.8238,63.5351 37.2188,63.9831 C35.5438,65.2241 32.8398,64.7951 31.5298,63.0801 C30.3198,61.4971 28.1578,60.9841 26.4268,61.8651 C26.1988,61.9811 25.9678,62.1151 25.7238,62.1681 C23.1218,62.7311 20.3208,62.4071 17.9338,63.9261 C17.9038,63.9451 17.8618,63.9531 17.8248,63.9551 C15.2018,64.1291 13.3928,65.4851 12.1688,67.7631 C11.0028,69.9361 10.5198,72.0911 12.0658,74.2931 C12.4868,74.8941 12.6588,75.4121 12.0258,76.0651 C11.6838,76.4181 11.4818,77.0731 11.5088,77.5771 C11.5498,78.3281 11.8488,79.0651 12.0458,79.8431 C10.7648,80.6131 9.3288,81.3311 8.8848,83.0051 C8.6478,83.8961 8.4588,84.8041 8.3208,85.7151 C8.0788,87.3161 8.4108,88.7881 9.4498,90.0711 C10.2578,91.0681 10.8638,92.1041 10.0118,93.3941 C9.7068,93.8571 9.4278,94.3421 9.1728,94.8361 C8.8508,95.4591 8.3228,96.0971 8.3068,96.7381 C8.2528,98.9881 9.4818,100.7711 11.1668,101.9911 C13.0758,103.3741 14.2848,102.9091 15.7208,100.9801 C16.0218,100.5751 16.7378,100.0871 17.1078,100.1901 C19.2118,100.7781 21.3338,100.2301 22.3548,98.2511 C23.0358,96.9321 23.6858,95.5951 24.3228,94.2541 C24.7078,93.4431 25.0908,92.6781 25.8798,92.9151 C27.5308,96.4021 29.0148,99.7121 30.6548,102.9421 C31.8238,105.2471 33.0898,107.5211 34.5238,109.6671 C35.7768,111.5431 37.2548,113.2841 38.7638,114.9691 C40.2648,116.6461 41.9348,118.1721 43.5118,119.7831 C43.7248,120.0011 43.8818,120.3121 43.9698,120.6071 C44.4858,122.3301 45.2838,123.9301 46.9758,124.6691 C48.9368,125.5271 50.9818,126.2611 53.0598,126.7721 C56.5758,127.6401 60.1508,128.1931 63.8068,127.9891 C65.6248,127.8881 67.4488,127.9171 69.2698,127.8641 C70.4678,127.8301 71.6848,127.8631 72.8568,127.6581 C73.6298,127.5221 74.0478,127.6791 74.6088,128.2141 C76.5628,130.0781 78.5468,131.9251 80.6548,133.6091 C81.5388,134.3151 82.8308,134.6921 83.9368,134.0211 C85.0018,133.3761 86.0388,132.5851 86.8608,131.6561 C88.6568,129.6281 88.3728,126.9031 89.0208,124.4861 C89.1538,123.9881 89.3608,123.4231 89.7198,123.0891 C91.1688,121.7391 93.8288,122.3841 94.8848,123.1821 C96.0558,124.0651 97.1678,125.0281 98.2798,125.9871 C99.4058,126.9591 101.0548,126.9881 102.0618,125.8801 C103.2698,124.5501 104.4358,123.1671 105.4898,121.7141 C105.9908,121.0231 106.4758,120.9221 107.1588,121.1831 C108.4358,121.6701 109.7918,122.0291 110.9538,122.7151 C112.4238,123.5831 115.3448,122.4511 115.9488,120.9651 C116.4888,119.6401 117.2248,118.3941 117.7238,117.4091 C119.2028,117.4091 120.4548,117.5821 121.6208,117.3391 C122.2398,117.2101 122.6578,116.2921 123.2538,115.8481 C124.8198,114.6801 126.4398,113.5851 128.0218,112.4391 C128.3708,112.1881 128.8748,111.8741 128.9228,111.5341 C129.0958,110.3351 127.5438,108.0811 126.0098,108.6351 C124.5308,109.1701 123.0228,109.6371 121.5718,110.2401 C120.3118,110.7641 119.7838,110.5361 119.5498,109.1931 C119.4608,108.6861 119.4628,108.0201 119.1458,107.7191 C117.7738,106.4181 117.5488,104.6991 117.2338,103.0091 C116.9178,101.3181 116.2848,100.5471 114.9498,100.3711 C113.7188,100.2081 111.7538,101.5721 111.2878,102.9381 C110.6678,104.7541 109.1868,105.3621 107.6178,104.4141 C107.3018,104.2241 106.7108,104.1061 106.4528,104.2731 C105.6838,104.7711 104.8958,105.3321 104.3408,106.0441 C103.5598,107.0441 102.9818,108.2021 102.2868,109.3421 C101.8558,109.3951 101.2448,109.4701 100.3808,109.5751 C101.1868,108.5071 101.9498,107.6841 102.4968,106.7361 C104.2448,103.7051 105.7888,100.5491 107.6508,97.5921 C109.2918,94.9861 110.5318,92.2081 111.4898,89.3391 C112.4408,86.4921 112.9388,83.4931 113.6248,80.5591 C113.6748,80.3451 113.7188,80.0501 113.6138,79.8941 C112.9968,78.9711 113.5248,78.0311 113.5308,77.1051 C113.5378,76.2011 113.9768,75.7601 114.9538,75.8371 C116.5018,75.9591 117.6338,75.1961 118.6508,74.0811 C119.2638,73.4081 119.0558,72.8551 118.5508,72.4661 C116.8908,71.1831 115.2108,69.8261 112.8308,70.8421 C112.7638,70.1921 112.8848,69.5611 112.6268,69.1941 C111.8028,68.0231 111.9458,66.2941 110.4678,65.4971 C110.3088,65.4111 110.2778,64.9601 110.2978,64.6871 C110.3748,63.6771 110.7868,62.5731 109.3738,62.0881 C109.2698,62.0531 109.2348,61.8341 109.1558,61.7081 C108.7108,60.9941 108.2628,60.2831 107.7258,59.4291 C107.7028,58.9601 107.6108,58.2251 107.6508,57.4961 C107.6778,56.9881 107.7288,56.2091 108.0398,56.0351 C109.3818,55.2861 110.8258,55.6591 112.2288,55.9871 C112.3588,56.0181 112.4758,56.1511 112.5738,56.2601 C113.5918,57.3881 114.3058,57.5051 115.5168,56.5611 C116.3358,55.9231 117.0488,55.1471 117.8058,54.4291 C119.1768,53.1281 119.4168,51.6601 118.3918,50.1211 C117.8348,49.2841 118.1588,48.6971 118.7428,48.1661 C119.1458,47.7991 119.7218,47.6181 120.1078,47.2391 C121.1888,46.1821 122.2288,45.0811 123.2508,43.9661 C124.3258,42.7951 125.2588,41.4721 126.4468,40.4371 C127.2358,39.7501 127.5768,39.0291 127.6628,38.0771 C127.6928,37.7421 127.6818,37.3941 127.7738,37.0761 C128.2058,35.5901 128.6718,34.1121 129.1098,32.6271 C129.1448,32.5091 129.0548,32.3521 129.0168,32.2151 C128.7418,31.2361 128.1348,30.9531 126.6438,31.3281 C124.5478,31.8541 122.8568,33.1001 121.1648,34.4101 C120.0448,35.2771 119.4238,36.1251 119.3088,37.5841 C119.2498,38.3421 118.5238,39.4321 117.8548,39.6621 C116.9478,39.9741 115.6918,40.2521 114.8658,39.0231 C114.5998,38.6281 113.9448,38.3371 113.4398,38.2881 C111.7878,38.1301 110.1748,38.2911 108.8238,39.6961 C108.5468,38.1141 107.2808,36.8461 108.1758,35.1951 C108.2968,34.9731 108.1738,34.6091 108.1408,34.3131 C108.0508,33.4991 107.4958,33.3761 106.8418,33.5141 C105.6768,33.7591 103.8358,35.6131 103.9528,36.7711 C104.0758,37.9801 103.0768,38.3251 102.6598,39.1121 C102.8258,38.1681 103.1748,37.2951 103.4468,36.3981 C103.7068,35.5451 104.0038,34.6761 104.0718,33.7971 C104.1728,32.5061 102.6668,31.6401 101.1108,31.9961 C99.8328,32.2891 99.4098,32.0101 99.1768,30.7221 C99.1158,30.3891 99.0668,30.0541 98.9908,29.7241 C98.7018,28.4661 98.1518,28.1931 96.9618,28.7091 C94.1638,29.9201 93.1148,31.8911 93.5048,34.9601 C93.7378,36.7831 93.6238,38.5341 91.9308,39.7941 C91.2838,40.2751 90.6858,40.8871 90.2388,41.5561 C89.7018,42.3591 89.1108,43.2561 88.9888,44.1721 C88.8728,45.0341 89.3938,45.9651 89.5188,46.8821 C89.5758,47.2991 89.4998,47.8991 89.2338,48.1671 C87.8748,49.5291 88.0658,51.2351 88.0808,52.8931 C88.0868,53.5471 88.1058,54.3331 88.4528,54.8251 C89.5118,56.3301 89.1678,57.8881 88.6198,59.3161 C87.7308,61.6291 86.5688,63.8371 85.5278,66.0931 C85.2588,66.6771 85.0128,67.2711 84.6658,68.0691 C84.3438,67.6531 84.0668,67.4351 83.9748,67.1541 C83.4498,65.5611 82.8518,63.9781 82.4998,62.3431 C81.9788,59.9171 80.7918,58.6121 78.3528,58.1051 C77.9948,58.0301 77.6728,57.7901 77.3178,57.6891 C76.8978,57.5691 76.3548,57.3131 76.0468,57.4711 C74.5368,58.2411 73.8578,57.1751 73.3228,56.1991 C72.4398,54.5901 71.4068,53.6241 69.3798,53.9151 C67.7168,54.1531 67.6948,54.0001 67.4188,55.7121 C67.4078,55.7851 67.3698,55.8561 67.3658,55.9311 C67.2738,57.6721 67.0468,59.4221 67.1578,61.1501 C67.2098,61.9601 67.3128,62.5031 66.4788,62.8281 C65.3698,61.6501 64.6388,61.6611 63.2048,62.3951 C62.8298,62.5871 62.0738,63.9061 61.4498,62.4961 C63.2098,61.9381 64.9708,61.3801 66.8008,60.8001 C65.2018,60.2501 63.7758,60.8871 62.3708,61.4171 C61.9638,61.5711 61.6888,62.0741 61.3538,62.4171 M88.8778,3.1721 C89.3818,3.1181 89.8968,2.9181 90.3208,3.0401 C97.3928,5.0791 104.2478,7.7341 110.3648,11.8371 C114.3988,14.5421 118.1438,17.7351 121.7538,21.0031 C125.4598,24.3561 128.4898,28.3621 131.3598,32.4581 C132.1318,33.5611 132.9108,34.6771 133.5198,35.8711 C135.2548,39.2761 137.0358,42.6691 138.5458,46.1761 C139.6388,48.7131 140.5628,51.3731 141.1408,54.0681 C142.0018,58.0821 142.5328,62.1691 143.1188,66.2371 C143.3698,67.9821 143.5858,69.7671 143.5068,71.5201 C143.3228,75.5631 143.2498,79.6511 142.5688,83.6251 C141.8358,87.8961 140.7398,92.1561 139.2998,96.2451 C136.8968,103.0701 133.6308,109.5391 129.1748,115.2711 C126.4878,118.7261 123.4898,121.9741 120.3608,125.0401 C116.4068,128.9161 111.8048,132.0091 107.0158,134.7751 C104.8788,136.0091 102.6368,137.0891 100.3638,138.0521 C97.7448,139.1621 95.0788,140.1991 92.3588,141.0221 C89.6748,141.8351 86.9228,142.4861 84.1568,142.9401 C81.0888,143.4441 77.9768,143.8261 74.8728,143.9291 C71.3888,144.0451 67.8568,144.0651 64.4108,143.6251 C60.0648,143.0701 55.6628,142.3891 51.5078,141.0631 C46.6288,139.5051 41.9088,137.3661 37.2698,135.1661 C32.5598,132.9331 28.6198,129.4791 24.5848,126.2281 C23.2448,125.1471 21.9528,123.9621 20.8388,122.6541 C18.0238,119.3461 15.2768,115.9761 12.5898,112.5621 C10.1898,109.5121 8.3008,106.1101 6.7608,102.5771 C5.2558,99.1231 4.1968,95.4771 2.9058,91.9271 C1.3248,87.5781 0.8178,83.0091 0.3368,78.4701 C-0.0262,75.0471 -0.1142,71.5431 0.1648,68.1151 C0.5088,63.9011 1.0538,59.6521 2.0698,55.5581 C3.4418,50.0271 5.1578,44.5481 7.9528,39.5221 C11.1008,33.8651 14.6338,28.4501 19.0448,23.6811 C22.3658,20.0901 25.9938,16.7921 30.0248,14.0281 C33.0728,11.9391 36.3928,10.2481 39.5628,8.3331 C43.1668,6.1561 47.1638,4.9311 51.1058,3.6181 C53.7608,2.7341 56.5218,2.0731 59.2868,1.6371 C65.9108,0.5901 72.5948,0.2801 79.2758,0.9331 C82.1798,1.2161 85.0468,1.8891 87.9178,2.4501 C88.3148,2.5271 88.6388,2.9841 88.8778,3.1721" id="Fill-1" fill="#000000" mask="url(#mask-2)"></path>
                </g>
                <path d="M52.5890581,141.041966 C52.7773725,140.926367 52.9656869,140.814498 53.1540014,140.698899 C52.641264,139.858009 52.1770037,138.981695 51.6046024,138.181825 C48.1646012,133.386332 45.8768606,128.098612 44.6929035,122.3168 C44.594085,121.833895 44.1876242,121.088095 43.8669303,121.058263 C43.391483,121.013515 42.8656942,121.498285 42.4592333,121.705244 C43.275884,123.690936 44.3293261,125.344747 44.616459,127.11975 C45.5393862,132.843763 49.3933063,136.727515 52.5890581,141.041966 M190.452001,102.74888 C189.862819,105.264089 189.314657,107.137911 188.995827,109.050887 C187.796954,116.221752 184.636628,122.728854 180.566426,128.445409 C178.192918,131.777269 176.248245,135.269477 174.197296,138.735581 C173.177415,140.456514 172.750445,142.520514 171.775312,144.271279 C169.355191,148.613698 167.08796,153.062393 162.428577,155.668963 C161.29869,156.301029 160.239654,157.89704 160.03083,159.191003 C159.402494,163.097129 156.622526,164.212099 153.445419,165.064175 C152.854373,165.222658 152.24841,165.405379 151.720757,165.703699 C148.897905,167.290388 145.774869,168.110767 142.776754,169.240654 C142.342326,169.406594 141.551778,169.369304 141.272103,169.0859 C138.835202,166.619168 135.520123,166.49984 132.473531,165.796924 C130.198842,165.272999 127.761941,164.819926 125.485387,165.090278 C122.110644,165.489281 118.467412,165.841672 116.42765,169.30964 C116.133059,169.811191 115.758294,170.340709 115.694902,170.890736 C115.482349,172.663875 115.398446,174.451929 115.264202,176.266087 C111.458759,176.724754 107.701793,177.24122 103.928046,177.59734 C102.434582,177.740906 100.903829,177.574966 99.3954486,177.470554 C93.7907637,177.086467 88.1133633,177.360548 82.6317354,175.798098 C79.2998751,174.847203 75.9941178,173.812406 72.6715801,172.833544 C71.3608371,172.445728 69.8561861,172.387929 68.7598605,171.681284 C66.9960442,170.542074 65.1035774,169.477445 63.522482,168.215179 C60.6213211,165.901336 58.1434015,162.992717 55.7549779,160.112065 C52.9172099,156.685116 50.1446995,153.164941 47.7376309,149.432213 C44.597814,144.56587 41.6332602,139.55596 38.9931291,134.404349 C36.9626894,130.438559 35.5493989,126.155804 34,121.686599 C37.8073076,123.705852 38.8402402,120.140929 40.4604901,118.636278 C42.2224419,116.997383 43.7886213,116.712115 45.9588985,116.963822 C51.0750846,117.556733 54.8469667,114.925925 57.8021981,111.174552 C58.6188488,110.13789 58.4454504,108.251017 58.5610493,106.742637 C58.7288543,104.544393 59.3907515,104.003688 61.3037278,105.161542 C64.1414958,106.88061 67.1452041,107.363516 70.3987554,107.466063 C73.6597647,107.56861 76.8984,108.290172 80.1612738,108.564253 C82.294261,108.743245 84.4533512,108.646291 86.6012544,108.607137 C91.1804647,108.519505 95.7652684,108.491538 100.338885,108.247288 C107.558227,107.863201 114.77011,107.313174 121.985722,106.84332 C126.044737,106.578561 130.126126,106.50771 134.159038,106.019212 C137.269023,105.642583 140.289512,104.469813 143.401361,104.154712 C149.334198,103.558072 155.110417,102.249194 160.920197,101.024218 C165.1899,100.1218 169.493164,99.3685425 173.788971,98.5891818 C175.194803,98.3356099 176.62301,98.2050949 178.194783,98 C181.550881,100.492836 184.155587,105.236122 190.452001,102.74888" id="Fill-4" fill="#509DBE"></path>
                <path d="M64.5085193,94.4209525 C64.6315762,94.2195866 64.7546332,94.0144917 64.8795546,93.8131257 C63.9342535,93.20157 63.0486163,92.4594992 62.0343287,92.0026969 C58.7397584,90.5222845 55.6521476,88.4209937 51.908233,88.1860668 C50.1705196,88.0779259 48.3899228,88.0723324 46.6783124,88.3333623 C45.078572,88.5813407 43.2849237,88.8945766 42.0375737,89.8063167 C40.0518819,91.2606262 38.51367,93.3078464 36.6528997,94.9541993 C35.9667639,95.5582971 34.8984058,96.0561184 34.0090397,96.0505249 C30.7107404,96.0318799 27.4143056,95.782037 24.1178708,95.6216901 C24.1048194,95.9218744 24.0899034,96.2201943 24.0768519,96.5203787 L33.6212238,96.5203787 C33.6622428,96.7292026 33.7032618,96.9380266 33.7442808,97.1468505 C33.1532345,97.5738208 32.6181232,98.1406286 31.9618194,98.403523 C30.2371576,99.0952523 28.3446908,99.4364556 26.7244409,100.303448 C21.0321245,103.351904 16.6002097,107.588047 14.7357103,114.011247 C14.5940084,114.503475 14.7170654,115.070282 14.7170654,115.957784 C18.1067251,110.826682 21.3901084,106.249336 26.3645925,103.243763 C27.1159857,102.792554 28.0258614,102.596782 28.8686151,102.302191 C30.1085071,101.867763 31.5646811,101.726061 32.5584592,100.972803 C34.9972243,99.1232198 38.1817891,98.1574091 39.671524,95.1108173 C39.9269604,94.5924864 40.6895407,94.318405 41.6161968,93.6397273 C41.2563485,95.3848986 40.9748091,96.6341132 40.7417466,97.8963792 C40.5086842,99.1642387 40.3222343,100.441421 40.1152749,101.716738 C40.3632533,101.755893 40.6093672,101.795047 40.8554811,101.834202 C41.3682184,99.4140816 41.9946902,97.010742 42.360132,94.568248 C42.6230264,92.8100251 43.5086636,91.708106 45.138236,91.3743606 C47.3290227,90.9268808 49.5589639,90.6099159 51.788905,90.423466 C53.140667,90.311596 54.60057,90.300409 55.874023,90.6938184 C57.8373408,91.3016452 59.6831951,92.2935588 61.5775264,93.1251255 C62.5563885,93.5539603 63.5315216,93.9902532 64.5085193,94.4209525 M74.2225606,105.212674 C72.1511019,104.893845 70.3760986,104.750279 68.6719462,104.325173 C66.598623,103.808707 64.4022428,103.374278 62.5787625,102.341346 C58.2717691,99.9025805 55.5402776,101.146201 55.5123101,106.154247 C55.4973941,108.855906 55.1599198,111.078389 52.7528512,112.638975 C50.563929,114.05413 48.1587249,114.79993 45.6304638,114.322618 C41.7187443,113.586141 39.2613342,115.920494 36.8971491,118.251118 C35.5043681,119.625254 34.7044979,119.300831 33.5224053,118.185861 C33.0786545,117.768213 32.2359008,117.697362 31.5609521,117.633969 C31.1917812,117.600408 30.7946429,118.021785 30.4012335,118.046023 C26.344083,118.282815 25.2570799,121.047867 24.2166893,124.433798 C23.4130901,127.044097 21.8170787,129.604054 19.9544439,131.61212 C19.0855872,132.549963 16.6561446,132.559286 15.1011522,132.219947 C12.5822137,131.671784 11.0346792,132.326223 9.63257575,134.416327 C7.27771313,137.930908 6.09189158,137.973792 3.14038918,134.751937 C2.20254603,133.728327 1.58912576,132.376565 0.945873496,131.118028 C0.0210818409,129.305734 0.656876104,127.836509 1.75879519,126.188292 C2.97071974,124.379727 3.55617252,122.164702 4.53130566,120.182739 C5.29947937,118.622153 4.71216209,117.544473 3.59346251,116.522727 C-0.644544411,112.653891 -0.722853381,108.37673 1.24046439,103.974647 C2.43560844,101.295361 3.98500736,98.6309919 8.07012534,98.9833823 C10.9824733,99.2369542 14.8270708,96.6173327 15.783559,92.8323991 C16.5312232,89.8753032 17.9799391,87.0505868 19.4249261,84.3284178 C20.9799185,81.4030184 23.9370144,80.4782267 27.0041158,80.2470288 C27.9960294,80.1724488 29.107271,80.8473976 30.0674881,81.3564059 C34.532964,83.7336425 38.8101254,83.3346396 43.1133898,80.8436686 C46.516101,78.8747573 52.1990949,80.5360262 54.2761471,83.9219569 C56.0250474,86.7727764 58.3780456,87.7031615 61.5588814,86.7093834 C65.8453653,85.3706729 68.5153283,87.0132968 70.0106567,90.8597588 C70.8105269,92.9144371 70.5588195,95.3550667 71.0212153,97.5719563 C71.3344512,99.0672848 72.0261805,100.491762 72.6265492,101.91624 C73.0964031,103.038668 73.6855848,104.11262 74.2225606,105.212674" id="Fill-6" fill="#509DBE"></path>
                <path d="M179.987896,48.4695858 C179.775343,48.2309299 179.56279,47.9904094 179.352102,47.749889 C177.17996,49.8288058 175.007818,51.909587 172.837541,53.9885037 L173.45469,54.628027 C175.632426,52.5752132 177.810161,50.5223995 179.987896,48.4695858 M220.745851,9 C220.546349,10.7582228 220.482956,12.0204889 220.248029,13.2473294 C219.843433,15.3635361 219.714783,17.6568703 218.754565,19.5027246 C217.88198,21.184503 216.026803,22.342357 214.665719,23.7892085 C213.578715,24.9433335 212.325772,26.0489816 211.600482,27.4137951 C210.230075,29.9998557 208.318963,31.9258834 205.91003,33.5144369 C203.864674,34.8624698 201.83237,36.3894948 201.207763,38.9121623 C200.969107,39.8835665 201.146234,41.2763475 201.711177,42.0575727 C202.833606,43.6088361 203.253118,44.8095736 201.985259,46.5342355 C200.268055,48.8723176 198.470678,51.0295433 195.651555,52.0102699 C195.205939,52.1668879 194.415392,51.9972185 194.068595,51.6727956 C190.962339,48.7604477 184.913903,49.112838 182.348352,51.917045 C181.740525,52.5808067 181.526108,54.0257937 181.757306,54.9561788 C182.331572,57.253242 181.899008,58.3458386 179.8984,59.4160612 C176.767906,61.0922461 173.346549,61.1463165 169.97367,61.4520944 C168.351556,61.5993899 166.962504,61.6366799 166.818937,63.8349245 C166.781647,64.3793583 165.541755,64.7783612 164.986135,65.367543 C162.959424,67.5154462 160.990513,69.7155553 158.805319,72.1058434 C159.741298,70.4333876 160.582187,68.9455171 161.40816,67.4483242 C162.24905,65.9194348 163.129093,64.4091903 163.869299,62.8318239 C164.076259,62.3936666 163.856248,61.7522788 163.830145,61.2022515 L163.218589,61.0064791 C162.129722,62.5129945 161.115434,64.0791739 159.931477,65.5073804 C158.980582,66.6540475 157.677297,67.5229042 156.797254,68.7124547 C155.361589,70.6533985 154.063898,72.7136702 152.844515,74.8019094 C149.833349,79.95725 146.859472,85.1349646 143.948989,90.3462401 C142.390267,93.1355311 140.999351,96.0161825 139.520803,98.8502215 C138.864499,100.103165 138.178364,101.341193 137.505279,102.588543 L137,102.398364 C137.579859,100.636412 138.016152,98.811067 138.773139,97.1311531 C140.068966,94.2523662 141.493443,91.4220562 143.005552,88.6495458 C144.292057,86.2890897 145.809759,84.0554195 147.167115,81.7303889 C148.979408,78.624133 150.111159,75.2083703 151.589707,71.958548 C153.429968,67.9088555 155.939584,64.1593474 158.231054,60.3222078 C158.566663,59.7647226 159.224832,59.2538497 159.84571,59.0319743 C163.503858,57.7175023 164.575945,54.5254795 165.875501,51.3334567 C167.012845,48.5404367 168.459697,45.8387773 170.065031,43.2825487 C172.060045,40.1073064 173.562831,36.9208771 172.39379,32.5784582 C174.597628,32.4087888 176.652307,32.2316613 178.710714,32.0992819 C180.724373,31.9669024 181.781544,30.7661649 182.486325,29.007942 C183.079236,27.5219361 183.455865,25.5996373 184.587616,24.7512901 C187.205373,22.7879724 190.238913,21.2777279 193.708746,21.7997877 C194.730492,21.9526767 195.772747,22.6425414 196.585669,23.3398641 C198.05303,24.6002657 199.544629,24.945198 201.377432,24.3112683 C206.066648,22.6891539 207.233824,21.2590829 207.26925,16.4095202 C207.284166,14.3306035 209.072221,13.7432862 210.220752,12.9676545 C212.420861,11.4816486 214.95658,10.459903 217.4345,9.44375083 C218.450652,9.02796749 219.681222,9.12678595 220.745851,9" id="Fill-8" fill="#509DBE"></path>
                <path d="M145.709035,64.5384172 C146.469751,65.0101355 147.073849,65.3848998 147.564212,65.6888132 C148.479681,61.6372562 149.538717,57.8952061 150.08315,54.0767116 C150.295703,52.5795186 149.587194,50.8026508 148.886142,49.3520703 C147.549296,46.5926114 147.636927,41.5118508 149.754999,39.3397091 C151.539324,37.5106352 151.047097,35.6852904 150.359096,33.8636746 C149.188191,30.7648768 149.355996,27.0750326 152.203086,24.8040725 C153.193135,24.0153893 154.117927,23.1390746 155.035261,22.2646244 C157.602676,19.8239948 158.268302,16.747571 157.688443,13.4082527 C156.856876,8.61648953 158.699002,4.76816297 163.020911,3.04536561 C163.5467,2.83467719 164.467763,3.40521398 165.103557,3.78370733 C165.366451,3.94032528 165.416793,4.53882955 165.472728,4.9490194 C166.26514,10.8221922 167.370788,9.56738418 171.798974,9.59908066 C173.913316,9.61586116 175.07117,11.0664416 174.258248,13.0595914 C172.425446,17.5418477 170.490095,21.9849495 170.327884,26.9650272 C170.279407,28.4678136 169.807689,29.9743291 169.419873,31.449148 C169.046973,32.8661675 168.769162,34.0277505 169.598865,35.5920655 C170.458399,37.2104509 169.349022,39.0078282 168.254561,40.5348531 C167.078062,42.1793415 165.877324,43.8517974 165.01779,45.6678197 C163.578396,48.7088181 163.354656,52.3147597 160.71639,54.8001373 C160.311794,55.1823597 159.964997,55.8461214 159.513788,55.9244304 C156.277017,56.4819157 155.65241,59.3868056 154.257764,61.5962373 C152.514457,64.3575607 150.789796,67.1319357 149.072592,69.9100397 C147.851345,71.8826799 146.301946,73.6483608 146.90045,76.3817167 C147.113003,77.3493919 146.098715,78.6582704 145.485295,79.721035 C143.162129,83.7371665 140.673022,87.6619375 138.444946,91.7284105 C136.848934,94.6388939 135.528869,97.7022663 134.160326,100.732078 C133.410798,102.391482 133.479784,102.421314 131,102.555558 C131.798006,99.3486192 132.532618,96.0316749 133.472326,92.7743946 C133.947773,91.1187192 134.76256,89.5544043 135.484121,87.9733089 C137.193867,84.2331233 139.019212,80.5414147 140.645055,76.7639391 C142.276492,72.973412 143.71775,69.104576 145.255962,65.2767589 C145.382748,64.9616585 145.613946,64.6894416 145.709035,64.5384172" id="Fill-10" fill="#509DBE"></path>
                <path d="M57.7191661,66.4571181 C56.5333445,66.542885 55.392271,66.624923 54.1430564,66.714419 C53.969658,61.7716313 50.7049197,60.1812134 46.6347177,59.1426873 C44.8056439,58.678427 42.9989441,57.6715974 41.5129382,56.4950983 C40.6179785,55.7847241 40.0194742,54.3136341 39.8815013,53.11849 C39.6297939,50.9388904 39.8628563,48.7070847 39.8162438,46.501382 C39.7435283,43.1434188 37.2432347,41.254681 35.2333045,39.0713523 C34.5881877,38.3703006 33.920697,37.6599263 33.4228757,36.8563271 C32.494355,35.3609987 32.8225069,34.0819522 33.995277,32.7190032 C34.9499006,31.6096261 35.6546813,30.1907421 36.1189417,28.7923676 C36.3874296,27.9850394 36.2252181,26.7898954 35.7851963,26.0496892 C34.9014236,24.5636832 33.857304,23.0963223 32.591309,21.9328747 C29.1102888,18.7333939 29.6882836,14.1821511 31.1332705,11.0292828 C32.1717966,8.7639161 32.3712981,6.69991537 31.9629727,4.39166523 C31.4614224,1.58000028 33.6279706,-0.868087302 35.7068873,0.297224763 C36.9840693,1.0094635 38.1214139,2.44326346 38.7068667,3.81553495 C39.6726773,6.0809016 40.1108347,8.56627918 40.8286669,10.9416513 C41.3731007,12.7371641 42.5738383,13.3077009 44.1344242,12.3307033 C45.7938286,11.2903127 47.289157,9.98889215 48.9597484,8.72103262 C52.770785,10.6918084 53.7235441,14.44691 52.9404544,18.6010144 C52.6309475,20.2510963 52.3102536,21.9030427 51.9019283,23.5307506 C51.0871421,26.7917599 53.4513272,28.8483026 54.8329212,31.2535067 C55.0268291,31.5928456 55.9590788,31.5965746 56.550125,31.5984391 C59.6246844,31.6096261 60.8459314,32.9818976 60.717281,36.0695084 C60.612869,38.6313305 60.803048,41.206204 60.68372,43.7661615 C60.635243,44.8419776 60.0423322,45.8805038 59.8465598,46.9637778 C58.7036217,53.293753 58.1908844,59.5957606 60.9839044,65.6982669 C61.1144193,65.9835352 61.0827228,66.3452481 60.788132,66.762896 C58.3885214,58.9431859 55.9889107,51.1197468 53.5893001,43.3000367 L52.558232,43.5778471 C53.1194463,45.3864114 53.6881186,47.1912468 54.2381459,49.0016756 C54.8217342,50.9165164 55.3866775,52.8369507 55.5992304,54.9065449 C53.5053977,50.47463 51.411565,46.0427152 49.3195967,41.6089358 C49.1200953,41.6853803 48.9205939,41.7618248 48.7210925,41.8382693 C51.1244321,50.2173291 54.4022218,58.2943401 57.7191661,66.4571181" id="Fill-12" fill="#509DBE"></path>
                <path d="M169.288853,167.047528 C170.401959,166.85362 171.518794,166.670899 172.630036,166.465804 C175.581538,165.919506 178.551686,164.813858 181.471492,164.940644 C185.642376,165.1215 188.731852,163.238356 191.875398,161.051299 C190.849923,161.017738 189.910215,161.258258 189.007798,161.597597 C188.040123,161.961174 187.133976,162.688329 186.153249,162.792741 C180.78722,163.35582 175.406275,163.775332 170.146523,164.235863 C170.836387,163.204795 171.735076,161.860491 172.904117,160.111591 C170.178219,160.723147 169.072571,162.546627 167.733861,164.179928 C166.840765,165.268796 165.748169,166.486314 164.493361,166.922607 C162.522585,167.605014 161.209978,168.761003 159.770584,170.800765 C163.924689,170.239551 167.036538,166.465804 171.213016,169.038814 C171.246577,168.815074 171.282003,168.593198 171.315564,168.369458 C170.648073,167.933165 169.978718,167.496873 169.288853,167.047528 M148,174.490609 C148.307642,174.119574 148.53884,173.597514 148.93225,173.399877 C151.512717,172.118966 153.962669,170.739237 155.724621,168.30793 C156.434995,167.325339 157.587255,166.626151 158.629511,165.936287 C160.65995,164.588254 162.324948,163.089196 162.895485,160.510594 C163.755019,156.636164 166.939584,155.099817 170.262122,153.865518 C172.501385,153.032087 174.845061,152.51935 177.166363,153.421767 C178.421171,153.912131 179.733778,154.585215 180.65857,155.530516 C182.228478,157.132121 183.744316,156.859904 185.068111,155.608825 C186.17003,154.56657 187.100415,153.205485 187.721293,151.814569 C189.570876,147.671652 191.659116,146.506339 196.736147,147.177559 C197.567714,147.2857 198.393687,147.470286 199.208473,147.677245 C202.941201,148.620682 203.414784,149.180031 203.832432,153.043274 C204.093462,155.468988 207.177343,156.369541 210.089691,155.004727 C212.388619,153.925182 214.728566,152.886656 217.135634,152.094244 C219.29286,151.385734 220.603603,152.429854 220.674454,154.596402 C216.468143,155.964944 213.785129,159.358333 210.796337,162.29492 C209.058623,164.002801 207.194124,164.690801 205.008931,163.710075 C203.155618,162.880372 201.641645,163.232763 200.61617,164.970476 C199.402381,167.028883 198.255714,169.143225 197.261936,171.315367 C196.264429,173.494967 193.249534,174.725536 190.87789,173.867867 C187.99351,172.825612 185.073704,171.874717 182.142711,170.96857 C180.537377,170.472613 179.193073,170.800765 178.113528,172.316603 C176.439208,174.669601 174.585896,176.892085 172.810892,179.172367 C171.42184,180.954829 169.7643,181.361289 167.814034,180.251912 C166.788559,179.668324 165.690369,179.041852 164.938976,178.165538 C162.692255,175.547781 159.960763,173.703791 156.597206,173.146305 C153.783677,172.680181 150.940315,172.922566 148.628336,175.117081 C148.419512,174.908257 148.208824,174.699433 148,174.490609" id="Fill-14" fill="#509DBE"></path>
                <path d="M41.6755817,75.8103213 C42.1193325,76.3044136 42.5649479,76.7966414 43.0068342,77.2925983 C41.4947253,79.3137155 37.3182468,80.5983555 34.5084464,79.8115368 C32.9068415,79.364057 31.2548951,78.9408156 29.7912631,78.1819644 C26.6421238,76.5505275 21.6266207,78.7245337 19.7602569,80.7437865 C17.0194429,83.7046114 15.0934151,87.0476586 14.7149218,91.1831181 C14.5396588,93.0960944 11.2749205,96.1576022 9.46635622,96.3515101 C7.80881634,96.5249086 6.62485929,93.9518995 7.41540699,91.9848528 C7.89831231,90.7841152 8.61241554,89.5554102 8.63478954,88.3285696 C8.65716353,87.1091871 8.1835807,85.7182706 7.50863196,84.674151 C5.47259872,81.5212827 5.56023018,79.8562848 7.393033,76.4647606 C9.36940226,72.8140709 12.1064872,70.2541134 16.1226187,69.3330507 C20.2823167,68.3840206 24.2984482,66.6780037 28.752737,67.0863291 C30.085854,67.2112505 31.627795,66.5996948 32.8658225,65.935933 C35.642062,64.4480626 37.8179326,64.681125 39.8707464,67.0173426 C43.9577289,71.6711329 48.3747277,72.3535396 54.0875536,69.9222325 C56.0490068,69.0869368 58.5642164,69.5101782 60.8295831,69.4672947 C61.2248569,69.4579722 61.9557406,69.9520645 61.9837081,70.2634359 C62.2466025,73.2727378 65.1291185,75.7543863 63.7326085,79.0974336 C63.4175081,79.8525558 63.5163266,80.794128 63.1564782,81.5156892 C62.7388303,82.3435269 62.1627001,83.255267 61.4038488,83.7139339 C60.1695503,84.4597336 58.7152408,84.3851536 57.8482487,83.0650881 C55.1782857,78.9986151 51.2497856,77.7139751 46.6482013,77.3709072 C45.0838864,77.2553083 43.5978805,76.1254217 42.0764491,75.4597954 C41.9422051,75.5753944 41.8079612,75.6928579 41.6755817,75.8103213" id="Fill-16" fill="#509DBE"></path>
                <path d="M96.6015449,90.3491248 C95.6282763,91.2571359 94.977566,91.6747838 94.5953437,92.2658301 C94.0154844,93.1645187 90.6743016,94.4155978 89.5798405,93.8133645 C86.4008692,92.0681931 83.1864724,91.6002038 79.7893547,93.0955323 C79.5469698,93.2018087 79.2337339,93.1365512 78.9596525,93.1887572 C78.7638801,93.2260472 78.5774301,93.3230012 78.2809747,93.9662534 C78.8365955,94.0706654 79.4425578,94.3727143 79.9385146,94.2459283 C82.7613666,93.5113156 85.3940396,93.7909905 87.9223006,95.3012349 C88.4107995,95.5939613 89.2069407,95.7393923 89.7252715,95.5566713 C93.8458149,94.1172779 97.4554856,95.8195657 101.106175,97.2943847 C101.479075,97.4454091 101.978761,97.725084 102.075715,98.0476424 C102.838295,100.615058 104.79229,100.488272 106.789169,100.175036 C109.567273,99.7368788 111.392618,101.510018 113.223556,103.035178 C114.310559,103.93946 113.641204,105.253932 112.069431,105.386312 C108.137202,105.718193 104.19938,106.027699 100.257828,106.219743 C96.2193226,106.415515 92.1733591,106.542301 88.1311246,106.506876 C87.2771839,106.499418 86.1323813,105.884133 85.627102,105.183081 C82.6122066,101.010332 79.7352842,96.7368994 76.8359878,92.482112 C75.3070984,90.2353903 73.8322794,87.9532432 72.3164415,85.6990635 C70.925525,83.6294693 70.6458501,81.3585091 71.4345333,79.0744975 C71.7198017,78.2485243 72.6278129,77.3703451 73.4425991,77.1037217 C73.8602469,76.9694778 75.02183,78.0135974 75.2884534,78.7314296 C76.0025566,80.6537284 77.1697332,81.1086662 79.1777989,81.641913 C82.0137024,82.3933063 85.3716656,83.6909978 86.5239262,86.7170801 C87.2492164,88.6225984 87.3704089,90.7369406 89.0130327,92.2098951 C89.5015316,92.6480524 90.1186808,92.9463723 91.0136405,92.9295918 C89.9732499,90.5169297 88.9328593,88.1042676 87.8943332,85.689741 C88.3362195,85.3429442 88.7818348,84.9980118 89.2237212,84.6493504 C89.570518,85.4417626 89.9173149,86.2360393 90.3629302,87.2577849 C93.0049258,85.4660011 95.9321897,84.4927325 97.2466617,81.1795172 C97.9495779,79.4045139 99.1708249,77.3833966 102.008593,77.6817165 C102.791683,73.2311567 105.236041,69.7389495 109.080639,67 C109.943902,68.7955128 110.952596,70.8464621 111.894168,72.9291078 C111.989258,73.1397962 111.754331,73.7159265 111.530591,73.8203385 C109.332346,74.8570001 108.523153,77.0160903 107.182578,78.7985516 C105.616399,80.8867908 103.425612,82.4939892 101.639422,84.4330685 C99.7469552,86.4877467 98.0092419,88.6822624 96.6015449,90.3491248" id="Fill-18" fill="#509DBE"></path>
                <path d="M123.140871,70.3506508 C123.05324,70.4662497 122.965608,70.5855777 122.876112,70.7011766 C127.158867,73.9882889 131.439758,77.2735367 135.729971,80.5662425 C136.604421,79.2517704 136.583911,77.655759 135.431651,76.1100891 C134.223455,74.4898392 133.026447,72.8546733 131.721297,71.3127324 C129.094217,68.2083411 126.558498,65.0032668 123.66666,62.1617698 C122.119126,60.6403384 119.909694,59.7882622 117.998582,58.6360016 C120.562269,61.2798617 123.498855,63.4016619 125.842531,66.0492509 C128.186206,68.6949754 129.935107,71.8646242 131.943172,74.8068041 C131.82198,74.8925711 131.698923,74.974609 131.577731,75.060376 C128.766066,73.4904676 125.952536,71.9205592 123.140871,70.3506508 M139.304216,75.2990319 C138.000931,77.7322035 136.671543,80.2101231 135.485721,82.4214193 C133.744279,81.882579 132.030804,81.3605192 130.324787,80.8086274 C129.955616,80.6911639 129.386944,80.527088 129.310499,80.2660581 C128.314857,76.8633468 125.406238,76.51655 122.603895,75.9087232 C119.85003,75.3139479 117.55856,74.4786522 115.58592,71.8403857 C113.947025,69.6477345 112.185073,67.6806878 111.390797,65.0293698 C111.217398,64.4495105 111.282656,63.8006647 111.241637,63.1853799 C111.208076,62.6614556 111.390797,61.9492169 111.116715,61.6453035 C109.360357,59.7062242 110.18633,57.4557736 110.24413,55.3115994 C110.266504,54.4781682 110.480921,53.652195 110.618894,52.8243573 C110.812802,51.6422648 110.518211,50.1506653 112.427458,50.0779498 C114.204326,50.0126924 116.022213,49.5875865 117.109216,51.7093867 C117.800945,53.0611487 118.630647,54.4147752 119.676632,55.4980493 C120.933304,56.7994698 122.402529,57.6907005 124.516872,56.9635458 C125.471495,56.6353939 126.756135,57.2077952 127.876699,57.4483156 C129.213545,57.733584 130.930749,57.703752 131.76418,58.5315897 C132.871693,59.6353733 133.339682,61.4122411 133.977341,62.942995 C134.480756,64.1549196 134.81823,65.4339661 135.241472,66.6775871 C135.657255,67.9006987 136.043206,69.1349972 136.526112,70.3282768 C137.173093,71.9373397 137.874145,73.5240286 138.621809,75.0883435 C138.713169,75.2841159 139.224042,75.2785224 139.304216,75.2990319" id="Fill-20" fill="#509DBE"></path>
                <path d="M126.227891,95.856205 C121.870556,92.7630007 117.511357,89.6679318 112.870618,86.3733616 C113.366575,83.9942604 115.115475,81.9619562 117.185069,80.1776304 C117.47966,79.9240585 118.359704,79.9501615 118.685991,80.2037334 C120.103011,81.3131104 122.071922,81.3709099 123.127229,83.3808402 C123.951337,84.9470196 126.3062,85.3628029 127.941366,84.3056318 C130.206733,82.8438644 131.96682,84.4081793 133.601986,84.5069978 C132.608208,88.6797472 131.709519,92.7313042 130.657941,96.7437067 C130.264532,98.2464931 129.610093,99.7045316 128.899719,101.095448 C128.375794,102.115329 127.771697,102.922657 126.181279,102.866722 C123.40131,102.766039 120.604561,103.185552 117.81527,103.392511 C116.84946,103.465227 115.885513,103.560316 115.383963,103.103514 C114.474087,101.867351 113.739475,100.426093 112.607724,99.4453662 C111.379019,98.3788726 109.812839,97.6684983 108.324969,96.9432081 C107.661207,96.6206497 106.544372,96.2608014 106.12486,96.5759018 C104.155948,98.0507207 103.255395,96.5703083 101.955839,95.5205951 C100.570516,94.4037601 98.9017893,93.6393153 97,92.5056998 C98.6705914,90.0967667 100.130494,87.5461316 102.090083,85.4672149 C102.606549,84.9190521 104.843949,85.4970469 105.986887,86.1197897 C110.689154,88.6853407 115.322435,91.3888647 119.879271,94.2042586 C121.768009,95.3695707 123.591489,96.4248773 125.819566,96.5087798 C125.955674,96.2906334 126.091783,96.0724869 126.227891,95.856205" id="Fill-22" fill="#509DBE"></path>
                <path d="M175.735035,96.1675664 C165.756235,97.9891822 156.139147,99.743676 146,101.595124 C146.316965,100.498798 146.467989,99.4863751 146.889366,98.6026025 C148.34554,95.5429591 149.820359,92.4851802 151.457389,89.5243553 C151.947753,88.6387182 152.885596,87.7941 153.815981,87.4062841 C155.9788,86.502002 158.219928,85.4951724 160.505805,85.2527874 C163.776136,84.9078551 167.031552,84.5069877 170.098654,87.0837258 C172.938286,89.4684204 174.482091,92.2633048 175.735035,96.1675664" id="Fill-24" fill="#509DBE"></path>
                <path d="M142.145915,191.997077 C138.409458,186.442733 135.101837,181.512997 131.77557,176.592584 C129.405791,173.083596 126.679893,169.968018 122,168.467096 C125.013031,166.710737 127.77249,166.822607 130.522626,167.314835 C132.152199,167.605697 133.755668,168.125892 135.318119,168.687107 C141.918446,171.055021 147.800941,177.416692 144.275173,185.43031 C143.398859,187.417867 142.915953,189.578821 142.145915,191.997077" id="Fill-26" fill="#509DBE"></path>
                <path d="M122.241128,176.912327 C121.348033,176.259753 120.33561,175.903633 120.225604,175.364793 C119.940336,173.953367 120.048477,172.459903 120,171 C121.183957,171.177127 122.641996,170.975762 123.503394,171.598504 C126.178951,173.539448 128.684838,175.650061 130.474757,178.612751 C132.801652,182.464806 135.706542,185.964471 138.063269,189.799746 C138.850088,191.078793 139.047725,192.954479 138.902294,194.502014 C138.775508,195.859369 137.347302,196.092432 136.271485,195.311206 C133.804753,193.515694 131.401413,191.626956 129.039093,189.69347 C126.14539,187.331149 124.366657,184.122346 122.470462,180.980665 C121.59974,179.539407 120.811057,178.329347 122.241128,176.912327" id="Fill-28" fill="#509DBE"></path>
                <path d="M175.748859,78.7170607 C175.441217,78.5324753 175.133574,78.3478899 174.825932,78.1633044 C175.062723,76.9774829 175.316295,75.7991193 175.532577,74.6095687 C175.719027,73.5952811 175.860729,72.571671 176.022941,71.5517899 C173.6774,75.4635094 174.055894,80.3746006 169.909247,83.1638916 C172.329367,84.3795451 172.305129,84.3627646 173.692316,82.2521514 C174.106235,81.6200861 174.725249,81.1278583 175.20629,80.536812 C176.466691,78.9799551 177.702854,77.4044532 178.94834,75.8364093 C178.730193,75.6462304 178.512047,75.4541869 178.293901,75.2621435 C177.445553,76.4144041 176.597206,77.5666646 175.748859,78.7170607 M172.407676,86.3764239 C171.594755,85.6529981 170.828445,84.9705914 170.064001,84.2825911 C169.353626,83.6486614 168.648846,83.0091381 168,82.4236853 C169.051578,80.603934 170.466733,78.8307952 171.136088,76.8115424 C171.807308,74.7829672 171.738321,72.5064135 171.999351,70.2895239 C172.747015,70.2895239 173.168392,70.2354534 173.569259,70.2988464 C177.339277,70.9066731 179.461077,68.475366 178.394584,64.7407739 C178.079483,63.6276678 177.721499,62.5276133 177.313174,61.1982253 C178.914779,61.1255098 180.23298,60.8924474 181.49711,61.0583878 C182.576656,61.2000898 183.861296,61.3045017 184.079442,62.9788221 C184.174531,63.6985188 184.959486,64.3417711 185.468494,64.9924813 C186.548039,66.3684818 186.374641,67.8749973 184.98186,68.9545424 C182.52445,70.8581961 182.295116,71.5722994 183.216179,74.4548153 C183.67671,75.8923443 182.682932,78.7916407 181.40575,79.6362589 C178.987494,81.2341348 176.52822,82.7686177 174.147254,84.4186996 C173.492815,84.8717729 173.050929,85.6362176 172.407676,86.3764239" id="Fill-30" fill="#509DBE"></path>
                <path d="M164.552438,74.3772796 C164.351072,74.2616806 164.147841,74.1460817 163.946475,74.0304827 C162.548101,76.0609224 161.132946,78.0801752 159.786777,80.1460404 C159.650669,80.3548643 159.950853,80.8470922 160.045943,81.2069405 C160.40952,81.1025286 160.972599,81.1099866 161.103114,80.8769241 C162.296394,78.7346144 163.413229,76.5494213 164.552438,74.3772796 M153,83.7277436 C154.623979,81.272198 156.244229,78.8166524 157.873801,76.3648358 C158.627059,75.2349492 159.393368,74.1106562 160.154084,72.9844986 C160.383417,72.6451597 160.554951,72.2480214 160.843949,71.97394 C163.57544,69.3822859 166.2771,66.7552064 169.090629,64.2549128 C170.87309,62.6719529 173.237275,62.8807769 175.256528,63.3040182 C177.040854,63.6769181 176.259629,65.7315963 176.401331,67.0535263 C176.541168,68.3624048 175.69655,69.124985 174.372756,69.195836 C173.820864,69.2238035 173.173882,68.8993806 172.720809,69.091424 C171.76805,69.4978849 170.364082,69.9677387 170.125426,70.7209964 C169.517599,72.6395662 169.461664,74.7333989 169.154022,76.7526517 C169.051475,77.4331939 169.07012,78.2964571 168.665523,78.7271564 C167.737003,79.7153411 166.491517,80.4033413 165.538758,81.3747455 C164.444297,82.4915805 163.331191,82.4524261 161.865694,82.3107241 C160.364772,82.1652932 158.774354,82.7675264 157.247329,83.1348328 C155.999979,83.4331527 154.78619,83.867581 153.557485,84.2404809 C153.371035,84.0689469 153.184585,83.897413 153,83.7277436" id="Fill-32" fill="#509DBE"></path>
                <path d="M117.145101,178.457389 C117.823779,179.88746 118.431606,181.162778 119.330294,183.05338 C115.28806,183.05338 111.803311,183.055245 108.316697,183.051516 C107.272577,183.051516 106.219135,182.948968 105.186202,183.051516 C99.2570947,183.629511 93.3745994,183.534421 87.5816001,181.973835 C83.0788342,180.761911 78.5499654,179.63016 74.0863541,178.283991 C71.6792855,177.558701 69.5891818,176.253551 69,173 C84.6450137,179.214376 100.57716,180.905477 117.145101,178.457389" id="Fill-34" fill="#509DBE"></path>
                <path d="M192.6531,93.8811904 C191.801024,93.2696346 191.109295,92.9414827 190.648763,92.4138294 C188.983765,90.4989887 186.502117,90.4989887 185.098149,92.4865449 C185.154084,92.6096019 185.208154,92.8370708 185.267818,92.8370708 C187.598442,92.8874123 189.274627,93.9949248 190.917251,95.6338197 C191.883062,96.5959014 192.80226,97.1235547 191.724579,98.3858207 C190.919116,99.3292574 190.00924,100.630678 188.981901,100.805941 C188.083212,100.95883 186.895526,99.8419947 185.944632,99.1390784 C184.102506,97.7779939 182.327503,96.325549 180.546906,94.8824265 C179.8067,94.2839222 179.124293,93.6127025 178,92.6021439 C180.479784,91.0713899 182.663113,89.8053949 184.756945,88.4051559 C186.589748,87.1801799 188.448654,85.9421524 190.072633,84.4654689 C193.012948,81.7955059 199.646837,80.7979988 202.648681,84.0161246 C202.156453,85.4611115 201.203694,86.1864018 199.592766,86.3075942 C197.858782,86.4418382 196.122933,86.7550741 194.435561,87.1745864 C193.876212,87.3162883 193.136005,87.9763211 193.04278,88.4965164 C192.776157,90.0328638 192.791073,91.6176882 192.6531,93.8811904" id="Fill-36" fill="#509DBE"></path>
                <path d="M94.3684076,76.7304349 C92.8376536,72.8858373 85.9874832,70.2494353 83.4051516,72.3264875 C87.3504322,72.9324498 90.8016204,74.3382822 94.3684076,76.7304349 M97.4373734,77.1313022 C96.0371344,78.8596931 94.7953779,80.7969078 93.1583475,82.2996943 C91.3572412,83.9516407 89.8227582,83.6868818 87.7624865,82.2400303 C86.0396892,81.0299703 84.2516343,79.8926257 82.4113735,78.8727446 C80.4107658,77.7633675 78.5201635,73.8367319 79.1093452,71.6813707 C79.5549606,70.0536628 83.6400786,68.411039 85.6350928,69.2071802 C90.0148017,70.954216 94.3590851,72.8019348 97.4373734,77.1313022" id="Fill-38" fill="#509DBE"></path>
                <path d="M176,151.758256 C176.063393,147.456856 180.911091,144.12686 185.035364,145.978308 C187.009868,146.86581 188.354172,145.612866 189.416937,144.570611 C191.149057,142.870188 192.383355,140.673807 194.031573,138.872701 C194.589058,138.26301 195.819628,137.891974 196.643736,138.028083 C197.229189,138.125037 197.851932,139.180343 198.09991,139.926143 C198.640615,141.553851 198.912832,143.267326 199.369634,144.92673 C199.729483,146.230015 199.334209,146.79123 197.965666,146.683089 C195.881156,146.519013 193.791052,146.384769 191.702813,146.250525 C189.426259,146.101365 187.86008,147.117517 186.739516,149.151686 C185.801673,150.853974 184.671786,152.449985 183.601564,154.075828 C182.941531,155.077064 182.272176,155.179612 181.170257,154.44127 C179.658148,153.428847 177.931621,152.737118 176,151.758256" id="Fill-40" fill="#509DBE"></path>
                <path d="M182.765619,13.000207 C182.528828,13.9175406 182.290172,14.6204569 182.172708,15.3438826 C181.846421,17.3444904 181.585391,19.3357756 182.83647,21.1816299 C183.502096,22.1642211 183.44989,23.0200262 182.416958,23.8926119 C181.453011,24.7073981 180.785521,25.6321898 180.82654,27.2319302 C180.873152,29.0143915 179.221206,29.8571452 177.515189,29.4488198 C175.339318,28.92676 173.571773,29.098294 172.430699,31.5034981 C172.287133,31.3804411 172.143566,31.2573842 172,31.1343272 C172.151024,28.8559091 172.229333,26.5681684 172.514602,24.3065308 C172.568672,23.8814249 173.478548,23.598021 173.931621,23.1803732 C175.835275,21.4314728 177.576717,19.6825725 177.962669,16.84294 C178.352349,13.9846626 179.784285,12.9834265 182.765619,13.000207" id="Fill-42" fill="#509DBE"></path>
                <path d="M80.6959835,103.497028 C79.1447201,101.04894 77.5785407,98.6101753 76.0571092,96.1434427 C75.7587894,95.6586729 75.5089465,95.0788136 75.451147,94.5231928 C74.9440032,89.6904106 72.632024,86.0490435 68.3958816,83.6475684 C68.0938327,83.4760345 67.7750033,83.310094 67.4431225,83.2224626 C67.1168351,83.1366956 66.7644447,83.1534761 66,83.0919476 C66.3840869,81.4959362 66.7439352,80.0099302 67.228705,78 C69.1659198,80.8489549 70.9894001,83.269075 72.5350701,85.8607291 C74.7743337,89.6176952 76.6220525,93.6189107 79.0011536,97.2789228 C80.6363195,99.7941324 82.8588027,101.932713 84.883649,104.181299 C85.3255353,104.673527 86.045232,104.917776 86.6362783,105.27576 C86.4647444,105.57408 86.2932104,105.874265 86.123541,106.176313 C83.9234318,105.98427 81.7195936,105.83511 79.5306715,105.559164 C79.1503136,105.512552 78.7046983,105.003543 78.5145193,104.600812 C77.5337927,102.531217 76.623917,100.428062 75.6431904,98.227953 C77.2522533,100.111097 78.8277552,101.951358 80.4032571,103.793483 C80.5020756,103.694665 80.5990296,103.595846 80.6959835,103.497028" id="Fill-44" fill="#509DBE"></path>
                <path d="M83,65.8243722 C85.2057027,62.9605012 87.8793947,62.335894 90.9297155,63.67274 C92.8650658,64.5210872 94.9234731,65.0916239 96.8439073,65.9660741 C99.5921793,67.2171532 99.6015018,70.1089916 100.414424,72.4824992 C100.507648,72.7565806 100.114239,73.3979683 99.7954097,73.5508573 C99.4859028,73.6981527 98.7997671,73.5806893 98.5890787,73.3252529 C95.1080585,69.1002974 90.2547668,67.3364811 85.2560442,65.8504752 C84.6053339,65.6565672 83.8464827,65.8243722 83,65.8243722" id="Fill-46" fill="#509DBE"></path>
                <path d="M176.018331,89.6232474 C175.880358,88.0365585 176.521746,87.1154959 177.925714,86.1720592 C181.25571,83.9365245 184.772155,81.7643829 186.593771,77.9608043 C186.996503,77.1217796 186.763441,75.9266355 186.660893,74.9123479 C186.567668,73.9894208 186.252568,73.0888676 185.991538,72 C189.069826,72.4139188 189.905122,74.4555456 190.240732,76.4524243 C190.43464,77.6009559 189.893935,79.3946042 189.030672,80.106843 C185.976622,82.631375 182.639168,84.8109747 179.413584,87.1285474 C178.332175,87.9041791 177.265681,88.7040493 176.018331,89.6232474" id="Fill-48" fill="#509DBE"></path>
                <path d="M112.946309,80.602192 C112.103555,79.8750373 110.958753,79.1217796 110.171934,78.0944405 C109.843782,77.6674701 110.017181,76.4257136 110.423641,75.9614533 C111.117235,75.1709056 112.176271,74.7010517 113.224119,74 C113.610071,74.8091927 113.755502,75.5475344 114.201117,75.9484018 C115.075567,76.737085 116.197996,77.9974865 117.078039,77.89121 C119.742409,77.5723807 121.828784,78.9260072 124.025164,79.8079153 C125.248275,80.2982786 126.115268,81.6686856 127.142607,82.6438188 C126.930054,82.9645127 126.719365,83.283342 126.504948,83.6040359 C125.580156,83.1584206 124.399928,82.9365452 123.780914,82.2243064 C121.957434,80.1360672 119.309845,79.5394274 116.994137,78.5680233 C116.07121,78.1820719 114.271968,79.8880888 112.946309,80.602192" id="Fill-50" fill="#509DBE"></path>
                <path d="M148.541271,85.2740814 C148.170236,86.5177024 146.902376,87.584196 148.338041,89.1056275 C148.75196,89.5456493 147.719027,91.5238831 147.141032,92.6929241 C146.009281,94.9918518 144.86075,97.3019664 143.449324,99.4293601 C142.869464,100.301946 141.590418,100.706542 140.628336,101.325556 L140,100.741968 C142.628944,95.4934021 145.256024,90.246701 147.884968,85 C148.104978,85.089496 148.323125,85.1827209 148.541271,85.2740814" id="Fill-52" fill="#509DBE"></path>
                <path d="M105,82.7097252 C106.357355,81.1659198 107.701659,79.6370304 109.141053,78 C109.480392,78.2591654 109.855156,78.5462983 110.226192,78.8371602 C112.829033,80.8657354 112.985651,82.7339637 110.617736,85.0795039 C110.306365,85.3890107 109.359199,85.4039267 108.913584,85.1671353 C107.530126,84.4343871 106.24735,83.5114599 105,82.7097252" id="Fill-54" fill="#509DBE"></path>
                <path d="M104.382809,66.6404465 C103.556836,67.5354062 102.738321,68.2867994 102.093204,69.1631141 C101.490971,69.9853583 101.073323,70.9437109 100.415155,72.127668 C99.9024177,70.5186051 99.4530733,69.1183661 99,67.6938886 C101.888109,64.3489769 102.274061,64.2632099 104.382809,66.6404465" id="Fill-56" fill="#509DBE"></path>
                <path d="M144,170.137952 C147.096933,169.056543 149.779948,168.120564 152.986887,167 C149.839612,170.868836 147.251687,171.814137 144,170.137952" id="Fill-58" fill="#509DBE"></path>
                <path d="M150,83.3983332 C151.320066,80.9334652 152.640131,78.4648681 153.960197,76 C154.148511,76.1025475 154.336825,76.2032304 154.52514,76.3039134 C153.206939,78.763188 151.888738,81.2205981 150.568672,83.6780081 C150.380358,83.5866477 150.190179,83.4915582 150,83.3983332" id="Fill-60" fill="#509DBE"></path>
            </g>
        </g>
    </g>
</svg>